M48
;GenerationSoftware,Autodesk,EAGLE,9.6.2*%
;CreationDate,2023-03-23T19:25:28Z*%
FMAT,2
ICI,OFF
METRIC,TZ,000.000
T7C0.711
T6C0.813
T5C1.000
T4C1.016
T3C1.100
T2C1.118
T1C4.572
%
G90
M71
T1
X3810Y3810
X72390Y3810
X72390Y72390
X3810Y72390
T2
X37465Y72245
X47625Y72281
X47625Y68645
X37465Y68769
X69204Y62437
X59044Y62437
X59052Y65725
X69212Y65725
T3
X72390Y35560
X72390Y33020
X62230Y4318
X59690Y4318
X2667Y35687
X2667Y38227
X2667Y33147
X72390Y38100
X57150Y4318
X19050Y4064
X16510Y4064
X13970Y4064
T4
X30480Y2540
X30480Y5080
X30734Y72009
X28194Y72009
X45720Y7620
X45720Y2540
X45720Y5080
X30480Y7620
T5
X16510Y72517
X13970Y72517
X61134Y72618
X58594Y72618
X56054Y72618
X19050Y72517
T6
X47614Y57484
X39994Y57484
X50165Y57531
X57785Y57531
X51181Y52324
X43561Y52324
X43561Y54864
X51181Y54864
X43103Y65497
X35483Y65497
X63246Y14351
X18923Y40767
X21463Y40767
X10160Y15875
X7620Y15875
X12700Y29464
X10160Y29464
X15748Y63119
X15748Y59563
X26416Y59436
X26416Y62992
X46990Y63500
X46990Y60960
X34290Y24130
X34290Y21590
X41910Y21590
X41910Y24130
X34290Y19050
X34290Y16510
X41910Y19050
X41910Y16510
X60960Y32131
X12827Y40767
X12827Y33147
X60579Y17780
X68199Y17780
X59690Y49022
X59690Y41402
X62230Y51689
X62230Y44069
X10287Y33147
X10287Y40767
X24257Y30353
X16637Y30353
X21717Y15621
X29337Y15621
X66167Y33782
X66167Y41402
X53340Y32131
X2540Y52070
X53340Y15621
X45720Y15621
X29337Y13081
X21717Y13081
X15240Y21590
X7620Y21590
X7620Y18796
X15240Y18796
X15367Y48387
X15367Y40767
X12827Y43942
X12827Y51562
X63500Y41402
X63500Y33782
X45720Y13081
X53340Y13081
X68199Y20193
X60579Y20193
X2540Y49530
X2540Y54610
X2540Y15240
X2540Y20320
X2540Y17780
X73533Y49530
X73533Y54610
X73533Y52070
X73406Y13843
X73406Y18923
X73406Y16383
X41910Y30480
X34290Y30480
X53213Y21336
X45593Y21336
X66675Y54610
X59055Y54610
X64770Y43942
X64770Y51562
X68199Y25019
X60579Y25019
X55753Y21590
X55753Y29210
X60452Y10287
X52832Y10287
X60579Y22606
X68199Y22606
X41910Y10160
X34290Y10160
X7620Y54610
X15240Y54610
X10287Y43942
X10287Y51562
X7620Y26543
X15240Y26543
X41910Y27813
X34290Y27813
X34290Y13335
X41910Y13335
X7620Y24130
X15240Y24130
X53340Y18288
X45720Y18288
X55880Y41402
X53340Y41402
X63119Y27940
X65659Y27940
X60706Y14351
T7
X51054Y63754
X51054Y65532
X8255Y62865
X8255Y64643
X34671Y57277
X36449Y57277
X3683Y62738
X18923Y44704
X20701Y44704
X54102Y45212
X36449Y61849
X34671Y61849
X55753Y65659
X55753Y63881
X3683Y64516
X55880Y45212
X13462Y15875
X56261Y14351
X58039Y14351
X15240Y15875
M30