G04 EAGLE Gerber RS-274X export*
G75*
%MOMM*%
%FSLAX34Y34*%
%LPD*%
%INBottom Copper*%
%IPPOS*%
%AMOC8*
5,1,8,0,0,1.08239X$1,22.5*%
G01*
%ADD10C,1.727200*%
%ADD11P,1.539592X8X202.500000*%
%ADD12P,1.539592X8X22.500000*%
%ADD13R,1.609600X1.609600*%
%ADD14C,1.609600*%
%ADD15C,1.625600*%
%ADD16P,1.429621X8X292.500000*%
%ADD17C,1.320800*%
%ADD18P,1.429621X8X202.500000*%
%ADD19P,1.732040X8X112.500000*%
%ADD20C,1.600200*%
%ADD21P,1.732040X8X292.500000*%
%ADD22P,1.539592X8X292.500000*%
%ADD23C,1.422400*%
%ADD24P,1.429621X8X22.500000*%
%ADD25C,1.709600*%
%ADD26P,1.539592X8X112.500000*%
%ADD27P,1.732040X8X202.500000*%
%ADD28P,1.732040X8X22.500000*%

G36*
X757671Y3850D02*
X757671Y3850D01*
X757688Y3860D01*
X757708Y3864D01*
X757797Y3917D01*
X757888Y3966D01*
X757902Y3980D01*
X757919Y3990D01*
X757986Y4069D01*
X758058Y4144D01*
X758066Y4162D01*
X758079Y4177D01*
X758118Y4273D01*
X758161Y4367D01*
X758163Y4387D01*
X758171Y4405D01*
X758189Y4572D01*
X758189Y757428D01*
X758186Y757448D01*
X758188Y757467D01*
X758166Y757569D01*
X758150Y757671D01*
X758140Y757688D01*
X758136Y757708D01*
X758083Y757797D01*
X758034Y757888D01*
X758020Y757902D01*
X758010Y757919D01*
X757931Y757986D01*
X757856Y758058D01*
X757838Y758066D01*
X757823Y758079D01*
X757727Y758118D01*
X757633Y758161D01*
X757613Y758163D01*
X757595Y758171D01*
X757428Y758189D01*
X4572Y758189D01*
X4552Y758186D01*
X4533Y758188D01*
X4431Y758166D01*
X4329Y758150D01*
X4312Y758140D01*
X4292Y758136D01*
X4203Y758083D01*
X4112Y758034D01*
X4098Y758020D01*
X4081Y758010D01*
X4014Y757931D01*
X3942Y757856D01*
X3934Y757838D01*
X3921Y757823D01*
X3882Y757727D01*
X3839Y757633D01*
X3837Y757613D01*
X3829Y757595D01*
X3811Y757428D01*
X3811Y4572D01*
X3814Y4552D01*
X3812Y4533D01*
X3834Y4431D01*
X3850Y4329D01*
X3860Y4312D01*
X3864Y4292D01*
X3917Y4203D01*
X3966Y4112D01*
X3980Y4098D01*
X3990Y4081D01*
X4069Y4014D01*
X4144Y3942D01*
X4162Y3934D01*
X4177Y3921D01*
X4273Y3882D01*
X4367Y3839D01*
X4387Y3837D01*
X4405Y3829D01*
X4572Y3811D01*
X757428Y3811D01*
X757448Y3814D01*
X757467Y3812D01*
X757569Y3834D01*
X757671Y3850D01*
G37*
%LPC*%
G36*
X34589Y697229D02*
X34589Y697229D01*
X27806Y699047D01*
X21724Y702558D01*
X16758Y707524D01*
X13247Y713606D01*
X11429Y720389D01*
X11429Y727411D01*
X13247Y734194D01*
X16758Y740276D01*
X21724Y745242D01*
X27806Y748753D01*
X34589Y750571D01*
X41611Y750571D01*
X48394Y748753D01*
X54476Y745242D01*
X59442Y740276D01*
X62953Y734194D01*
X64771Y727411D01*
X64771Y720389D01*
X62953Y713606D01*
X59442Y707524D01*
X54476Y702558D01*
X48394Y699047D01*
X41611Y697229D01*
X34589Y697229D01*
G37*
%LPD*%
%LPC*%
G36*
X720389Y697229D02*
X720389Y697229D01*
X713606Y699047D01*
X707524Y702558D01*
X702558Y707524D01*
X699047Y713606D01*
X697229Y720389D01*
X697229Y727411D01*
X699047Y734194D01*
X702558Y740276D01*
X707524Y745242D01*
X713606Y748753D01*
X720389Y750571D01*
X727411Y750571D01*
X734194Y748753D01*
X740276Y745242D01*
X745242Y740276D01*
X748753Y734194D01*
X750571Y727411D01*
X750571Y720389D01*
X748753Y713606D01*
X745242Y707524D01*
X740276Y702558D01*
X734194Y699047D01*
X727411Y697229D01*
X720389Y697229D01*
G37*
%LPD*%
%LPC*%
G36*
X720389Y11429D02*
X720389Y11429D01*
X713606Y13247D01*
X707524Y16758D01*
X702558Y21724D01*
X699047Y27806D01*
X697229Y34589D01*
X697229Y41611D01*
X699047Y48394D01*
X702558Y54476D01*
X707524Y59442D01*
X713606Y62953D01*
X720389Y64771D01*
X727411Y64771D01*
X734194Y62953D01*
X740276Y59442D01*
X745242Y54476D01*
X748753Y48394D01*
X750571Y41611D01*
X750571Y34589D01*
X748753Y27806D01*
X745242Y21724D01*
X740276Y16758D01*
X734194Y13247D01*
X727411Y11429D01*
X720389Y11429D01*
G37*
%LPD*%
%LPC*%
G36*
X34589Y11429D02*
X34589Y11429D01*
X27806Y13247D01*
X21724Y16758D01*
X16758Y21724D01*
X13247Y27806D01*
X11429Y34589D01*
X11429Y41611D01*
X13247Y48394D01*
X16758Y54476D01*
X21724Y59442D01*
X27806Y62953D01*
X34589Y64771D01*
X41611Y64771D01*
X48394Y62953D01*
X54476Y59442D01*
X59442Y54476D01*
X62953Y48394D01*
X64771Y41611D01*
X64771Y34589D01*
X62953Y27806D01*
X59442Y21724D01*
X54476Y16758D01*
X48394Y13247D01*
X41611Y11429D01*
X34589Y11429D01*
G37*
%LPD*%
%LPC*%
G36*
X625012Y327073D02*
X625012Y327073D01*
X625037Y327081D01*
X625063Y327081D01*
X625154Y327115D01*
X625248Y327142D01*
X625269Y327157D01*
X625294Y327166D01*
X625370Y327227D01*
X625450Y327282D01*
X625465Y327303D01*
X625486Y327319D01*
X625539Y327402D01*
X625597Y327479D01*
X625605Y327504D01*
X625619Y327526D01*
X625643Y327621D01*
X625673Y327713D01*
X625673Y327740D01*
X625679Y327765D01*
X625671Y327862D01*
X625671Y327959D01*
X625661Y327991D01*
X625660Y328010D01*
X625647Y328040D01*
X625624Y328120D01*
X625347Y328788D01*
X625347Y346852D01*
X626817Y350400D01*
X629532Y353115D01*
X633080Y354585D01*
X636920Y354585D01*
X640468Y353115D01*
X643183Y350400D01*
X644653Y346852D01*
X644653Y328788D01*
X643183Y325240D01*
X640468Y322525D01*
X636920Y321055D01*
X633080Y321055D01*
X629532Y322525D01*
X627330Y324727D01*
X627251Y324784D01*
X627176Y324846D01*
X627151Y324855D01*
X627130Y324871D01*
X627037Y324899D01*
X626946Y324934D01*
X626920Y324935D01*
X626895Y324943D01*
X626798Y324941D01*
X626700Y324945D01*
X626675Y324937D01*
X626649Y324937D01*
X626558Y324903D01*
X626464Y324876D01*
X626443Y324861D01*
X626418Y324852D01*
X626342Y324791D01*
X626262Y324736D01*
X626247Y324715D01*
X626226Y324699D01*
X626173Y324616D01*
X626115Y324539D01*
X626107Y324514D01*
X626093Y324492D01*
X626069Y324397D01*
X626039Y324305D01*
X626039Y324278D01*
X626033Y324253D01*
X626041Y324156D01*
X626041Y324059D01*
X626051Y324027D01*
X626052Y324008D01*
X626065Y323978D01*
X626088Y323898D01*
X626365Y323230D01*
X626365Y319390D01*
X624895Y315842D01*
X622180Y313127D01*
X618632Y311657D01*
X600568Y311657D01*
X597020Y313127D01*
X594305Y315842D01*
X592835Y319390D01*
X592835Y323230D01*
X594305Y326778D01*
X597020Y329493D01*
X600568Y330963D01*
X618632Y330963D01*
X622180Y329493D01*
X624382Y327291D01*
X624461Y327234D01*
X624536Y327172D01*
X624561Y327163D01*
X624582Y327147D01*
X624675Y327119D01*
X624766Y327084D01*
X624792Y327083D01*
X624817Y327075D01*
X624914Y327077D01*
X625012Y327073D01*
G37*
%LPD*%
%LPC*%
G36*
X633080Y397255D02*
X633080Y397255D01*
X629532Y398725D01*
X626817Y401440D01*
X625347Y404988D01*
X625347Y423086D01*
X625356Y423109D01*
X625358Y423161D01*
X625370Y423211D01*
X625365Y423262D01*
X625369Y423299D01*
X625365Y423319D01*
X625366Y423354D01*
X625352Y423404D01*
X625347Y423456D01*
X625324Y423508D01*
X625317Y423539D01*
X625309Y423554D01*
X625298Y423591D01*
X625268Y423633D01*
X625247Y423681D01*
X625206Y423726D01*
X625191Y423750D01*
X625181Y423759D01*
X625158Y423793D01*
X625116Y423824D01*
X625081Y423862D01*
X625024Y423893D01*
X625004Y423910D01*
X624994Y423914D01*
X624960Y423939D01*
X624911Y423955D01*
X624865Y423981D01*
X624801Y423992D01*
X624776Y424002D01*
X624763Y424004D01*
X624726Y424016D01*
X624674Y424015D01*
X624623Y424024D01*
X624552Y424014D01*
X624480Y424013D01*
X624412Y423993D01*
X624380Y423989D01*
X624368Y423982D01*
X624359Y423981D01*
X624347Y423974D01*
X624319Y423966D01*
X624220Y423925D01*
X620380Y423925D01*
X616832Y425395D01*
X614117Y428110D01*
X612647Y431658D01*
X612647Y449722D01*
X614117Y453270D01*
X616832Y455985D01*
X620380Y457455D01*
X624220Y457455D01*
X627768Y455985D01*
X630483Y453270D01*
X631953Y449722D01*
X631953Y431624D01*
X631944Y431601D01*
X631942Y431549D01*
X631930Y431499D01*
X631937Y431427D01*
X631934Y431356D01*
X631948Y431306D01*
X631953Y431254D01*
X631982Y431188D01*
X632002Y431119D01*
X632032Y431077D01*
X632053Y431029D01*
X632101Y430976D01*
X632142Y430917D01*
X632184Y430886D01*
X632219Y430848D01*
X632282Y430813D01*
X632340Y430771D01*
X632389Y430755D01*
X632435Y430729D01*
X632505Y430717D01*
X632574Y430694D01*
X632626Y430695D01*
X632677Y430686D01*
X632748Y430696D01*
X632820Y430697D01*
X632888Y430717D01*
X632920Y430721D01*
X632941Y430732D01*
X632981Y430744D01*
X633080Y430785D01*
X636920Y430785D01*
X640468Y429315D01*
X643183Y426600D01*
X644653Y423052D01*
X644653Y404988D01*
X643183Y401440D01*
X640468Y398725D01*
X636920Y397255D01*
X633080Y397255D01*
G37*
%LPD*%
%LPC*%
G36*
X126350Y390905D02*
X126350Y390905D01*
X122802Y392375D01*
X120087Y395090D01*
X118617Y398638D01*
X118617Y416702D01*
X120087Y420250D01*
X122844Y423007D01*
X122855Y423023D01*
X122871Y423035D01*
X122927Y423123D01*
X122987Y423206D01*
X122993Y423225D01*
X123004Y423242D01*
X123029Y423343D01*
X123060Y423442D01*
X123059Y423461D01*
X123064Y423481D01*
X123056Y423584D01*
X123053Y423687D01*
X123046Y423706D01*
X123045Y423726D01*
X123004Y423821D01*
X122969Y423918D01*
X122956Y423934D01*
X122949Y423952D01*
X122844Y424083D01*
X120087Y426840D01*
X118617Y430388D01*
X118617Y448452D01*
X120087Y452000D01*
X122802Y454715D01*
X126350Y456185D01*
X130190Y456185D01*
X133738Y454715D01*
X136453Y452000D01*
X137923Y448452D01*
X137923Y430388D01*
X136453Y426840D01*
X133696Y424083D01*
X133685Y424067D01*
X133669Y424055D01*
X133613Y423967D01*
X133553Y423884D01*
X133547Y423865D01*
X133536Y423848D01*
X133511Y423747D01*
X133480Y423648D01*
X133481Y423629D01*
X133476Y423609D01*
X133484Y423506D01*
X133487Y423403D01*
X133494Y423384D01*
X133495Y423364D01*
X133536Y423269D01*
X133571Y423172D01*
X133584Y423156D01*
X133591Y423138D01*
X133696Y423007D01*
X136453Y420250D01*
X137923Y416702D01*
X137923Y398638D01*
X136453Y395090D01*
X133738Y392375D01*
X130190Y390905D01*
X126350Y390905D01*
G37*
%LPD*%
%LPC*%
G36*
X15916Y345781D02*
X15916Y345781D01*
X11841Y347469D01*
X8721Y350589D01*
X7033Y354664D01*
X7033Y359076D01*
X8721Y363151D01*
X11841Y366271D01*
X15916Y367959D01*
X37424Y367959D01*
X41499Y366271D01*
X44619Y363151D01*
X46307Y359076D01*
X46307Y354664D01*
X44619Y350589D01*
X41499Y347469D01*
X37424Y345781D01*
X15916Y345781D01*
G37*
%LPD*%
%LPC*%
G36*
X713146Y344511D02*
X713146Y344511D01*
X709071Y346199D01*
X705951Y349319D01*
X704263Y353394D01*
X704263Y357806D01*
X705951Y361881D01*
X709071Y365001D01*
X713146Y366689D01*
X734654Y366689D01*
X738729Y365001D01*
X741849Y361881D01*
X743537Y357806D01*
X743537Y353394D01*
X741849Y349319D01*
X738729Y346199D01*
X734654Y344511D01*
X713146Y344511D01*
G37*
%LPD*%
%LPC*%
G36*
X620094Y23543D02*
X620094Y23543D01*
X616019Y25231D01*
X612899Y28351D01*
X611211Y32426D01*
X611211Y53934D01*
X612899Y58009D01*
X616019Y61129D01*
X620094Y62817D01*
X624506Y62817D01*
X628581Y61129D01*
X631701Y58009D01*
X633389Y53934D01*
X633389Y32426D01*
X631701Y28351D01*
X628581Y25231D01*
X624506Y23543D01*
X620094Y23543D01*
G37*
%LPD*%
%LPC*%
G36*
X713146Y319111D02*
X713146Y319111D01*
X709071Y320799D01*
X705951Y323919D01*
X704263Y327994D01*
X704263Y332406D01*
X705951Y336481D01*
X709071Y339601D01*
X713146Y341289D01*
X734654Y341289D01*
X738729Y339601D01*
X741849Y336481D01*
X743537Y332406D01*
X743537Y327994D01*
X741849Y323919D01*
X738729Y320799D01*
X734654Y319111D01*
X713146Y319111D01*
G37*
%LPD*%
%LPC*%
G36*
X594694Y23543D02*
X594694Y23543D01*
X590619Y25231D01*
X587499Y28351D01*
X585811Y32426D01*
X585811Y53934D01*
X587499Y58009D01*
X590619Y61129D01*
X594694Y62817D01*
X599106Y62817D01*
X603181Y61129D01*
X606301Y58009D01*
X607989Y53934D01*
X607989Y32426D01*
X606301Y28351D01*
X603181Y25231D01*
X599106Y23543D01*
X594694Y23543D01*
G37*
%LPD*%
%LPC*%
G36*
X15916Y320381D02*
X15916Y320381D01*
X11841Y322069D01*
X8721Y325189D01*
X7033Y329264D01*
X7033Y333676D01*
X8721Y337751D01*
X11841Y340871D01*
X15916Y342559D01*
X37424Y342559D01*
X41499Y340871D01*
X44619Y337751D01*
X46307Y333676D01*
X46307Y329264D01*
X44619Y325189D01*
X41499Y322069D01*
X37424Y320381D01*
X15916Y320381D01*
G37*
%LPD*%
%LPC*%
G36*
X569294Y23543D02*
X569294Y23543D01*
X565219Y25231D01*
X562099Y28351D01*
X560411Y32426D01*
X560411Y53934D01*
X562099Y58009D01*
X565219Y61129D01*
X569294Y62817D01*
X573706Y62817D01*
X577781Y61129D01*
X580901Y58009D01*
X582589Y53934D01*
X582589Y32426D01*
X580901Y28351D01*
X577781Y25231D01*
X573706Y23543D01*
X569294Y23543D01*
G37*
%LPD*%
%LPC*%
G36*
X15916Y371181D02*
X15916Y371181D01*
X11841Y372869D01*
X8721Y375989D01*
X7033Y380064D01*
X7033Y384476D01*
X8721Y388551D01*
X11841Y391671D01*
X15916Y393359D01*
X37424Y393359D01*
X41499Y391671D01*
X44619Y388551D01*
X46307Y384476D01*
X46307Y380064D01*
X44619Y375989D01*
X41499Y372869D01*
X37424Y371181D01*
X15916Y371181D01*
G37*
%LPD*%
%LPC*%
G36*
X137494Y21003D02*
X137494Y21003D01*
X133419Y22691D01*
X130299Y25811D01*
X128611Y29886D01*
X128611Y51394D01*
X130299Y55469D01*
X133419Y58589D01*
X137494Y60277D01*
X141906Y60277D01*
X145981Y58589D01*
X149101Y55469D01*
X150789Y51394D01*
X150789Y29886D01*
X149101Y25811D01*
X145981Y22691D01*
X141906Y21003D01*
X137494Y21003D01*
G37*
%LPD*%
%LPC*%
G36*
X162894Y21003D02*
X162894Y21003D01*
X158819Y22691D01*
X155699Y25811D01*
X154011Y29886D01*
X154011Y51394D01*
X155699Y55469D01*
X158819Y58589D01*
X162894Y60277D01*
X167306Y60277D01*
X171381Y58589D01*
X174501Y55469D01*
X176189Y51394D01*
X176189Y29886D01*
X174501Y25811D01*
X171381Y22691D01*
X167306Y21003D01*
X162894Y21003D01*
G37*
%LPD*%
%LPC*%
G36*
X188294Y21003D02*
X188294Y21003D01*
X184219Y22691D01*
X181099Y25811D01*
X179411Y29886D01*
X179411Y51394D01*
X181099Y55469D01*
X184219Y58589D01*
X188294Y60277D01*
X192706Y60277D01*
X196781Y58589D01*
X199901Y55469D01*
X201589Y51394D01*
X201589Y29886D01*
X199901Y25811D01*
X196781Y22691D01*
X192706Y21003D01*
X188294Y21003D01*
G37*
%LPD*%
%LPC*%
G36*
X713146Y369911D02*
X713146Y369911D01*
X709071Y371599D01*
X705951Y374719D01*
X704263Y378794D01*
X704263Y383206D01*
X705951Y387281D01*
X709071Y390401D01*
X713146Y392089D01*
X734654Y392089D01*
X738729Y390401D01*
X741849Y387281D01*
X743537Y383206D01*
X743537Y378794D01*
X741849Y374719D01*
X738729Y371599D01*
X734654Y369911D01*
X713146Y369911D01*
G37*
%LPD*%
%LPC*%
G36*
X305218Y701293D02*
X305218Y701293D01*
X301297Y702917D01*
X298295Y705919D01*
X296671Y709840D01*
X296671Y730340D01*
X298295Y734261D01*
X301297Y737263D01*
X305218Y738887D01*
X309462Y738887D01*
X313383Y737263D01*
X316385Y734261D01*
X318009Y730340D01*
X318009Y709840D01*
X316385Y705919D01*
X313383Y702917D01*
X309462Y701293D01*
X305218Y701293D01*
G37*
%LPD*%
%LPC*%
G36*
X446950Y40131D02*
X446950Y40131D01*
X443029Y41755D01*
X440027Y44757D01*
X438403Y48678D01*
X438403Y52922D01*
X440027Y56843D01*
X443029Y59845D01*
X446950Y61469D01*
X467450Y61469D01*
X471371Y59845D01*
X474373Y56843D01*
X475997Y52922D01*
X475997Y48678D01*
X474373Y44757D01*
X471371Y41755D01*
X467450Y40131D01*
X446950Y40131D01*
G37*
%LPD*%
%LPC*%
G36*
X294550Y65531D02*
X294550Y65531D01*
X290629Y67155D01*
X287627Y70157D01*
X286003Y74078D01*
X286003Y78322D01*
X287627Y82243D01*
X290629Y85245D01*
X294550Y86869D01*
X315050Y86869D01*
X318971Y85245D01*
X321973Y82243D01*
X323597Y78322D01*
X323597Y74078D01*
X321973Y70157D01*
X318971Y67155D01*
X315050Y65531D01*
X294550Y65531D01*
G37*
%LPD*%
%LPC*%
G36*
X446950Y65531D02*
X446950Y65531D01*
X443029Y67155D01*
X440027Y70157D01*
X438403Y74078D01*
X438403Y78322D01*
X440027Y82243D01*
X443029Y85245D01*
X446950Y86869D01*
X467450Y86869D01*
X471371Y85245D01*
X474373Y82243D01*
X475997Y78322D01*
X475997Y74078D01*
X474373Y70157D01*
X471371Y67155D01*
X467450Y65531D01*
X446950Y65531D01*
G37*
%LPD*%
%LPC*%
G36*
X294550Y40131D02*
X294550Y40131D01*
X290629Y41755D01*
X287627Y44757D01*
X286003Y48678D01*
X286003Y52922D01*
X287627Y56843D01*
X290629Y59845D01*
X294550Y61469D01*
X315050Y61469D01*
X318971Y59845D01*
X321973Y56843D01*
X323597Y52922D01*
X323597Y48678D01*
X321973Y44757D01*
X318971Y41755D01*
X315050Y40131D01*
X294550Y40131D01*
G37*
%LPD*%
%LPC*%
G36*
X67168Y178307D02*
X67168Y178307D01*
X63620Y179777D01*
X60905Y182492D01*
X59435Y186040D01*
X59435Y189880D01*
X60905Y193428D01*
X63620Y196143D01*
X67168Y197613D01*
X85232Y197613D01*
X88780Y196143D01*
X91495Y193428D01*
X92965Y189880D01*
X92965Y186040D01*
X91495Y182492D01*
X88780Y179777D01*
X85232Y178307D01*
X67168Y178307D01*
G37*
%LPD*%
%LPC*%
G36*
X151750Y390905D02*
X151750Y390905D01*
X148202Y392375D01*
X145487Y395090D01*
X144017Y398638D01*
X144017Y416702D01*
X145487Y420250D01*
X148202Y422965D01*
X151750Y424435D01*
X155590Y424435D01*
X159138Y422965D01*
X161853Y420250D01*
X163323Y416702D01*
X163323Y398638D01*
X161853Y395090D01*
X159138Y392375D01*
X155590Y390905D01*
X151750Y390905D01*
G37*
%LPD*%
%LPC*%
G36*
X524368Y146557D02*
X524368Y146557D01*
X520820Y148027D01*
X518105Y150742D01*
X516635Y154290D01*
X516635Y158130D01*
X518105Y161678D01*
X520820Y164393D01*
X524368Y165863D01*
X542432Y165863D01*
X545980Y164393D01*
X548695Y161678D01*
X550165Y158130D01*
X550165Y154290D01*
X548695Y150742D01*
X545980Y148027D01*
X542432Y146557D01*
X524368Y146557D01*
G37*
%LPD*%
%LPC*%
G36*
X333868Y231647D02*
X333868Y231647D01*
X330320Y233117D01*
X327605Y235832D01*
X326135Y239380D01*
X326135Y243220D01*
X327605Y246768D01*
X330320Y249483D01*
X333868Y250953D01*
X351932Y250953D01*
X355480Y249483D01*
X358195Y246768D01*
X359665Y243220D01*
X359665Y239380D01*
X358195Y235832D01*
X355480Y233117D01*
X351932Y231647D01*
X333868Y231647D01*
G37*
%LPD*%
%LPC*%
G36*
X16368Y142747D02*
X16368Y142747D01*
X12820Y144217D01*
X10105Y146932D01*
X8635Y150480D01*
X8635Y154320D01*
X10105Y157868D01*
X12820Y160583D01*
X16368Y162053D01*
X34432Y162053D01*
X37980Y160583D01*
X40695Y157868D01*
X42165Y154320D01*
X42165Y150480D01*
X40695Y146932D01*
X37980Y144217D01*
X34432Y142747D01*
X16368Y142747D01*
G37*
%LPD*%
%LPC*%
G36*
X208138Y146557D02*
X208138Y146557D01*
X204590Y148027D01*
X201875Y150742D01*
X200405Y154290D01*
X200405Y158130D01*
X201875Y161678D01*
X204590Y164393D01*
X208138Y165863D01*
X226202Y165863D01*
X229750Y164393D01*
X232465Y161678D01*
X233935Y158130D01*
X233935Y154290D01*
X232465Y150742D01*
X229750Y148027D01*
X226202Y146557D01*
X208138Y146557D01*
G37*
%LPD*%
%LPC*%
G36*
X524368Y311657D02*
X524368Y311657D01*
X520820Y313127D01*
X518105Y315842D01*
X516635Y319390D01*
X516635Y323230D01*
X518105Y326778D01*
X520820Y329493D01*
X524368Y330963D01*
X542432Y330963D01*
X545980Y329493D01*
X548695Y326778D01*
X550165Y323230D01*
X550165Y319390D01*
X548695Y315842D01*
X545980Y313127D01*
X542432Y311657D01*
X524368Y311657D01*
G37*
%LPD*%
%LPC*%
G36*
X596758Y168147D02*
X596758Y168147D01*
X593210Y169617D01*
X590495Y172332D01*
X589025Y175880D01*
X589025Y179720D01*
X590495Y183268D01*
X593210Y185983D01*
X596758Y187453D01*
X614822Y187453D01*
X618370Y185983D01*
X621085Y183268D01*
X622555Y179720D01*
X622555Y175880D01*
X621085Y172332D01*
X618370Y169617D01*
X614822Y168147D01*
X596758Y168147D01*
G37*
%LPD*%
%LPC*%
G36*
X659750Y397255D02*
X659750Y397255D01*
X656202Y398725D01*
X653487Y401440D01*
X652017Y404988D01*
X652017Y423052D01*
X653487Y426600D01*
X656202Y429315D01*
X659750Y430785D01*
X663590Y430785D01*
X667138Y429315D01*
X669853Y426600D01*
X671323Y423052D01*
X671323Y404988D01*
X669853Y401440D01*
X667138Y398725D01*
X663590Y397255D01*
X659750Y397255D01*
G37*
%LPD*%
%LPC*%
G36*
X208138Y121157D02*
X208138Y121157D01*
X204590Y122627D01*
X201875Y125342D01*
X200405Y128890D01*
X200405Y132730D01*
X201875Y136278D01*
X204590Y138993D01*
X208138Y140463D01*
X226202Y140463D01*
X229750Y138993D01*
X232465Y136278D01*
X233935Y132730D01*
X233935Y128890D01*
X232465Y125342D01*
X229750Y122627D01*
X226202Y121157D01*
X208138Y121157D01*
G37*
%LPD*%
%LPC*%
G36*
X284338Y121157D02*
X284338Y121157D01*
X280790Y122627D01*
X278075Y125342D01*
X276605Y128890D01*
X276605Y132730D01*
X278075Y136278D01*
X280790Y138993D01*
X284338Y140463D01*
X302402Y140463D01*
X305950Y138993D01*
X308665Y136278D01*
X310135Y132730D01*
X310135Y128890D01*
X308665Y125342D01*
X305950Y122627D01*
X302402Y121157D01*
X284338Y121157D01*
G37*
%LPD*%
%LPC*%
G36*
X672958Y168147D02*
X672958Y168147D01*
X669410Y169617D01*
X666695Y172332D01*
X665225Y175880D01*
X665225Y179720D01*
X666695Y183268D01*
X669410Y185983D01*
X672958Y187453D01*
X691022Y187453D01*
X694570Y185983D01*
X697285Y183268D01*
X698755Y179720D01*
X698755Y175880D01*
X697285Y172332D01*
X694570Y169617D01*
X691022Y168147D01*
X672958Y168147D01*
G37*
%LPD*%
%LPC*%
G36*
X594980Y397255D02*
X594980Y397255D01*
X591432Y398725D01*
X588717Y401440D01*
X587247Y404988D01*
X587247Y423052D01*
X588717Y426600D01*
X591432Y429315D01*
X594980Y430785D01*
X598820Y430785D01*
X602368Y429315D01*
X605083Y426600D01*
X606553Y423052D01*
X606553Y404988D01*
X605083Y401440D01*
X602368Y398725D01*
X598820Y397255D01*
X594980Y397255D01*
G37*
%LPD*%
%LPC*%
G36*
X16368Y168147D02*
X16368Y168147D01*
X12820Y169617D01*
X10105Y172332D01*
X8635Y175880D01*
X8635Y179720D01*
X10105Y183268D01*
X12820Y185983D01*
X16368Y187453D01*
X34432Y187453D01*
X37980Y185983D01*
X40695Y183268D01*
X42165Y179720D01*
X42165Y175880D01*
X40695Y172332D01*
X37980Y169617D01*
X34432Y168147D01*
X16368Y168147D01*
G37*
%LPD*%
%LPC*%
G36*
X448168Y146557D02*
X448168Y146557D01*
X444620Y148027D01*
X441905Y150742D01*
X440435Y154290D01*
X440435Y158130D01*
X441905Y161678D01*
X444620Y164393D01*
X448168Y165863D01*
X466232Y165863D01*
X469780Y164393D01*
X472495Y161678D01*
X473965Y158130D01*
X473965Y154290D01*
X472495Y150742D01*
X469780Y148027D01*
X466232Y146557D01*
X448168Y146557D01*
G37*
%LPD*%
%LPC*%
G36*
X333868Y155447D02*
X333868Y155447D01*
X330320Y156917D01*
X327605Y159632D01*
X326135Y163180D01*
X326135Y167020D01*
X327605Y170568D01*
X330320Y173283D01*
X333868Y174753D01*
X351932Y174753D01*
X355480Y173283D01*
X358195Y170568D01*
X359665Y167020D01*
X359665Y163180D01*
X358195Y159632D01*
X355480Y156917D01*
X351932Y155447D01*
X333868Y155447D01*
G37*
%LPD*%
%LPC*%
G36*
X448168Y121157D02*
X448168Y121157D01*
X444620Y122627D01*
X441905Y125342D01*
X440435Y128890D01*
X440435Y132730D01*
X441905Y136278D01*
X444620Y138993D01*
X448168Y140463D01*
X466232Y140463D01*
X469780Y138993D01*
X472495Y136278D01*
X473965Y132730D01*
X473965Y128890D01*
X472495Y125342D01*
X469780Y122627D01*
X466232Y121157D01*
X448168Y121157D01*
G37*
%LPD*%
%LPC*%
G36*
X524368Y121157D02*
X524368Y121157D01*
X520820Y122627D01*
X518105Y125342D01*
X516635Y128890D01*
X516635Y132730D01*
X518105Y136278D01*
X520820Y138993D01*
X524368Y140463D01*
X542432Y140463D01*
X545980Y138993D01*
X548695Y136278D01*
X550165Y132730D01*
X550165Y128890D01*
X548695Y125342D01*
X545980Y122627D01*
X542432Y121157D01*
X524368Y121157D01*
G37*
%LPD*%
%LPC*%
G36*
X284338Y146557D02*
X284338Y146557D01*
X280790Y148027D01*
X278075Y150742D01*
X276605Y154290D01*
X276605Y158130D01*
X278075Y161678D01*
X280790Y164393D01*
X284338Y165863D01*
X302402Y165863D01*
X305950Y164393D01*
X308665Y161678D01*
X310135Y158130D01*
X310135Y154290D01*
X308665Y150742D01*
X305950Y148027D01*
X302402Y146557D01*
X284338Y146557D01*
G37*
%LPD*%
%LPC*%
G36*
X725028Y128777D02*
X725028Y128777D01*
X721480Y130247D01*
X718765Y132962D01*
X717295Y136510D01*
X717295Y140350D01*
X718765Y143898D01*
X721480Y146613D01*
X725028Y148083D01*
X743092Y148083D01*
X746640Y146613D01*
X749355Y143898D01*
X750825Y140350D01*
X750825Y136510D01*
X749355Y132962D01*
X746640Y130247D01*
X743092Y128777D01*
X725028Y128777D01*
G37*
%LPD*%
%LPC*%
G36*
X410068Y155447D02*
X410068Y155447D01*
X406520Y156917D01*
X403805Y159632D01*
X402335Y163180D01*
X402335Y167020D01*
X403805Y170568D01*
X406520Y173283D01*
X410068Y174753D01*
X428132Y174753D01*
X431680Y173283D01*
X434395Y170568D01*
X435865Y167020D01*
X435865Y163180D01*
X434395Y159632D01*
X431680Y156917D01*
X428132Y155447D01*
X410068Y155447D01*
G37*
%LPD*%
%LPC*%
G36*
X725028Y154177D02*
X725028Y154177D01*
X721480Y155647D01*
X718765Y158362D01*
X717295Y161910D01*
X717295Y165750D01*
X718765Y169298D01*
X721480Y172013D01*
X725028Y173483D01*
X743092Y173483D01*
X746640Y172013D01*
X749355Y169298D01*
X750825Y165750D01*
X750825Y161910D01*
X749355Y158362D01*
X746640Y155647D01*
X743092Y154177D01*
X725028Y154177D01*
G37*
%LPD*%
%LPC*%
G36*
X333868Y180847D02*
X333868Y180847D01*
X330320Y182317D01*
X327605Y185032D01*
X326135Y188580D01*
X326135Y192420D01*
X327605Y195968D01*
X330320Y198683D01*
X333868Y200153D01*
X351932Y200153D01*
X355480Y198683D01*
X358195Y195968D01*
X359665Y192420D01*
X359665Y188580D01*
X358195Y185032D01*
X355480Y182317D01*
X351932Y180847D01*
X333868Y180847D01*
G37*
%LPD*%
%LPC*%
G36*
X100950Y390905D02*
X100950Y390905D01*
X97402Y392375D01*
X94687Y395090D01*
X93217Y398638D01*
X93217Y416702D01*
X94687Y420250D01*
X97402Y422965D01*
X100950Y424435D01*
X104790Y424435D01*
X108338Y422965D01*
X111053Y420250D01*
X112523Y416702D01*
X112523Y398638D01*
X111053Y395090D01*
X108338Y392375D01*
X104790Y390905D01*
X100950Y390905D01*
G37*
%LPD*%
%LPC*%
G36*
X126350Y314705D02*
X126350Y314705D01*
X122802Y316175D01*
X120087Y318890D01*
X118617Y322438D01*
X118617Y340502D01*
X120087Y344050D01*
X122802Y346765D01*
X126350Y348235D01*
X130190Y348235D01*
X133738Y346765D01*
X136453Y344050D01*
X137923Y340502D01*
X137923Y322438D01*
X136453Y318890D01*
X133738Y316175D01*
X130190Y314705D01*
X126350Y314705D01*
G37*
%LPD*%
%LPC*%
G36*
X16368Y536447D02*
X16368Y536447D01*
X12820Y537917D01*
X10105Y540632D01*
X8635Y544180D01*
X8635Y548020D01*
X10105Y551568D01*
X12820Y554283D01*
X16368Y555753D01*
X34432Y555753D01*
X37980Y554283D01*
X40695Y551568D01*
X42165Y548020D01*
X42165Y544180D01*
X40695Y540632D01*
X37980Y537917D01*
X34432Y536447D01*
X16368Y536447D01*
G37*
%LPD*%
%LPC*%
G36*
X100950Y314705D02*
X100950Y314705D01*
X97402Y316175D01*
X94687Y318890D01*
X93217Y322438D01*
X93217Y340502D01*
X94687Y344050D01*
X97402Y346765D01*
X100950Y348235D01*
X104790Y348235D01*
X108338Y346765D01*
X111053Y344050D01*
X112523Y340502D01*
X112523Y322438D01*
X111053Y318890D01*
X108338Y316175D01*
X104790Y314705D01*
X100950Y314705D01*
G37*
%LPD*%
%LPC*%
G36*
X659750Y321055D02*
X659750Y321055D01*
X656202Y322525D01*
X653487Y325240D01*
X652017Y328788D01*
X652017Y346852D01*
X653487Y350400D01*
X656202Y353115D01*
X659750Y354585D01*
X663590Y354585D01*
X667138Y353115D01*
X669853Y350400D01*
X671323Y346852D01*
X671323Y328788D01*
X669853Y325240D01*
X667138Y322525D01*
X663590Y321055D01*
X659750Y321055D01*
G37*
%LPD*%
%LPC*%
G36*
X726298Y536447D02*
X726298Y536447D01*
X722750Y537917D01*
X720035Y540632D01*
X718565Y544180D01*
X718565Y548020D01*
X720035Y551568D01*
X722750Y554283D01*
X726298Y555753D01*
X744362Y555753D01*
X747910Y554283D01*
X750625Y551568D01*
X752095Y548020D01*
X752095Y544180D01*
X750625Y540632D01*
X747910Y537917D01*
X744362Y536447D01*
X726298Y536447D01*
G37*
%LPD*%
%LPC*%
G36*
X620380Y500125D02*
X620380Y500125D01*
X616832Y501595D01*
X614117Y504310D01*
X612647Y507858D01*
X612647Y525922D01*
X614117Y529470D01*
X616832Y532185D01*
X620380Y533655D01*
X624220Y533655D01*
X627768Y532185D01*
X630483Y529470D01*
X631953Y525922D01*
X631953Y507858D01*
X630483Y504310D01*
X627768Y501595D01*
X624220Y500125D01*
X620380Y500125D01*
G37*
%LPD*%
%LPC*%
G36*
X410068Y180847D02*
X410068Y180847D01*
X406520Y182317D01*
X403805Y185032D01*
X402335Y188580D01*
X402335Y192420D01*
X403805Y195968D01*
X406520Y198683D01*
X410068Y200153D01*
X428132Y200153D01*
X431680Y198683D01*
X434395Y195968D01*
X435865Y192420D01*
X435865Y188580D01*
X434395Y185032D01*
X431680Y182317D01*
X428132Y180847D01*
X410068Y180847D01*
G37*
%LPD*%
%LPC*%
G36*
X672958Y192277D02*
X672958Y192277D01*
X669410Y193747D01*
X666695Y196462D01*
X665225Y200010D01*
X665225Y203850D01*
X666695Y207398D01*
X669410Y210113D01*
X672958Y211583D01*
X691022Y211583D01*
X694570Y210113D01*
X697285Y207398D01*
X698755Y203850D01*
X698755Y200010D01*
X697285Y196462D01*
X694570Y193747D01*
X691022Y192277D01*
X672958Y192277D01*
G37*
%LPD*%
%LPC*%
G36*
X126350Y498855D02*
X126350Y498855D01*
X122802Y500325D01*
X120087Y503040D01*
X118617Y506588D01*
X118617Y524652D01*
X120087Y528200D01*
X122802Y530915D01*
X126350Y532385D01*
X130190Y532385D01*
X133738Y530915D01*
X136453Y528200D01*
X137923Y524652D01*
X137923Y506588D01*
X136453Y503040D01*
X133738Y500325D01*
X130190Y498855D01*
X126350Y498855D01*
G37*
%LPD*%
%LPC*%
G36*
X16368Y511047D02*
X16368Y511047D01*
X12820Y512517D01*
X10105Y515232D01*
X8635Y518780D01*
X8635Y522620D01*
X10105Y526168D01*
X12820Y528883D01*
X16368Y530353D01*
X34432Y530353D01*
X37980Y528883D01*
X40695Y526168D01*
X42165Y522620D01*
X42165Y518780D01*
X40695Y515232D01*
X37980Y512517D01*
X34432Y511047D01*
X16368Y511047D01*
G37*
%LPD*%
%LPC*%
G36*
X726298Y511047D02*
X726298Y511047D01*
X722750Y512517D01*
X720035Y515232D01*
X718565Y518780D01*
X718565Y522620D01*
X720035Y526168D01*
X722750Y528883D01*
X726298Y530353D01*
X744362Y530353D01*
X747910Y528883D01*
X750625Y526168D01*
X752095Y522620D01*
X752095Y518780D01*
X750625Y515232D01*
X747910Y512517D01*
X744362Y511047D01*
X726298Y511047D01*
G37*
%LPD*%
%LPC*%
G36*
X596758Y192277D02*
X596758Y192277D01*
X593210Y193747D01*
X590495Y196462D01*
X589025Y200010D01*
X589025Y203850D01*
X590495Y207398D01*
X593210Y210113D01*
X596758Y211583D01*
X614822Y211583D01*
X618370Y210113D01*
X621085Y207398D01*
X622555Y203850D01*
X622555Y200010D01*
X621085Y196462D01*
X618370Y193747D01*
X614822Y192277D01*
X596758Y192277D01*
G37*
%LPD*%
%LPC*%
G36*
X16368Y193547D02*
X16368Y193547D01*
X12820Y195017D01*
X10105Y197732D01*
X8635Y201280D01*
X8635Y205120D01*
X10105Y208668D01*
X12820Y211383D01*
X16368Y212853D01*
X34432Y212853D01*
X37980Y211383D01*
X40695Y208668D01*
X42165Y205120D01*
X42165Y201280D01*
X40695Y197732D01*
X37980Y195017D01*
X34432Y193547D01*
X16368Y193547D01*
G37*
%LPD*%
%LPC*%
G36*
X67168Y206247D02*
X67168Y206247D01*
X63620Y207717D01*
X60905Y210432D01*
X59435Y213980D01*
X59435Y217820D01*
X60905Y221368D01*
X63620Y224083D01*
X67168Y225553D01*
X85232Y225553D01*
X88780Y224083D01*
X91495Y221368D01*
X92965Y217820D01*
X92965Y213980D01*
X91495Y210432D01*
X88780Y207717D01*
X85232Y206247D01*
X67168Y206247D01*
G37*
%LPD*%
%LPC*%
G36*
X333868Y206247D02*
X333868Y206247D01*
X330320Y207717D01*
X327605Y210432D01*
X326135Y213980D01*
X326135Y217820D01*
X327605Y221368D01*
X330320Y224083D01*
X333868Y225553D01*
X351932Y225553D01*
X355480Y224083D01*
X358195Y221368D01*
X359665Y217820D01*
X359665Y213980D01*
X358195Y210432D01*
X355480Y207717D01*
X351932Y206247D01*
X333868Y206247D01*
G37*
%LPD*%
%LPC*%
G36*
X410068Y206247D02*
X410068Y206247D01*
X406520Y207717D01*
X403805Y210432D01*
X402335Y213980D01*
X402335Y217820D01*
X403805Y221368D01*
X406520Y224083D01*
X410068Y225553D01*
X428132Y225553D01*
X431680Y224083D01*
X434395Y221368D01*
X435865Y217820D01*
X435865Y213980D01*
X434395Y210432D01*
X431680Y207717D01*
X428132Y206247D01*
X410068Y206247D01*
G37*
%LPD*%
%LPC*%
G36*
X143368Y206247D02*
X143368Y206247D01*
X139820Y207717D01*
X137105Y210432D01*
X135635Y213980D01*
X135635Y217820D01*
X137105Y221368D01*
X139820Y224083D01*
X143368Y225553D01*
X161432Y225553D01*
X164980Y224083D01*
X167695Y221368D01*
X169165Y217820D01*
X169165Y213980D01*
X167695Y210432D01*
X164980Y207717D01*
X161432Y206247D01*
X143368Y206247D01*
G37*
%LPD*%
%LPC*%
G36*
X410068Y231647D02*
X410068Y231647D01*
X406520Y233117D01*
X403805Y235832D01*
X402335Y239380D01*
X402335Y243220D01*
X403805Y246768D01*
X406520Y249483D01*
X410068Y250953D01*
X428132Y250953D01*
X431680Y249483D01*
X434395Y246768D01*
X435865Y243220D01*
X435865Y239380D01*
X434395Y235832D01*
X431680Y233117D01*
X428132Y231647D01*
X410068Y231647D01*
G37*
%LPD*%
%LPC*%
G36*
X233538Y293877D02*
X233538Y293877D01*
X229990Y295347D01*
X227275Y298062D01*
X225805Y301610D01*
X225805Y305450D01*
X227275Y308998D01*
X229990Y311713D01*
X233538Y313183D01*
X251602Y313183D01*
X255150Y311713D01*
X257865Y308998D01*
X259335Y305450D01*
X259335Y301610D01*
X257865Y298062D01*
X255150Y295347D01*
X251602Y293877D01*
X233538Y293877D01*
G37*
%LPD*%
%LPC*%
G36*
X594980Y473455D02*
X594980Y473455D01*
X591432Y474925D01*
X588717Y477640D01*
X587247Y481188D01*
X587247Y499252D01*
X588717Y502800D01*
X591432Y505515D01*
X594980Y506985D01*
X598820Y506985D01*
X602368Y505515D01*
X605083Y502800D01*
X606553Y499252D01*
X606553Y481188D01*
X605083Y477640D01*
X602368Y474925D01*
X598820Y473455D01*
X594980Y473455D01*
G37*
%LPD*%
%LPC*%
G36*
X726298Y485647D02*
X726298Y485647D01*
X722750Y487117D01*
X720035Y489832D01*
X718565Y493380D01*
X718565Y497220D01*
X720035Y500768D01*
X722750Y503483D01*
X726298Y504953D01*
X744362Y504953D01*
X747910Y503483D01*
X750625Y500768D01*
X752095Y497220D01*
X752095Y493380D01*
X750625Y489832D01*
X747910Y487117D01*
X744362Y485647D01*
X726298Y485647D01*
G37*
%LPD*%
%LPC*%
G36*
X16368Y485647D02*
X16368Y485647D01*
X12820Y487117D01*
X10105Y489832D01*
X8635Y493380D01*
X8635Y497220D01*
X10105Y500768D01*
X12820Y503483D01*
X16368Y504953D01*
X34432Y504953D01*
X37980Y503483D01*
X40695Y500768D01*
X42165Y497220D01*
X42165Y493380D01*
X40695Y489832D01*
X37980Y487117D01*
X34432Y485647D01*
X16368Y485647D01*
G37*
%LPD*%
%LPC*%
G36*
X151750Y467105D02*
X151750Y467105D01*
X148202Y468575D01*
X145487Y471290D01*
X144017Y474838D01*
X144017Y492902D01*
X145487Y496450D01*
X148202Y499165D01*
X151750Y500635D01*
X155590Y500635D01*
X159138Y499165D01*
X161853Y496450D01*
X163323Y492902D01*
X163323Y474838D01*
X161853Y471290D01*
X159138Y468575D01*
X155590Y467105D01*
X151750Y467105D01*
G37*
%LPD*%
%LPC*%
G36*
X725028Y179577D02*
X725028Y179577D01*
X721480Y181047D01*
X718765Y183762D01*
X717295Y187310D01*
X717295Y191150D01*
X718765Y194698D01*
X721480Y197413D01*
X725028Y198883D01*
X743092Y198883D01*
X746640Y197413D01*
X749355Y194698D01*
X750825Y191150D01*
X750825Y187310D01*
X749355Y183762D01*
X746640Y181047D01*
X743092Y179577D01*
X725028Y179577D01*
G37*
%LPD*%
%LPC*%
G36*
X143368Y178307D02*
X143368Y178307D01*
X139820Y179777D01*
X137105Y182492D01*
X135635Y186040D01*
X135635Y189880D01*
X137105Y193428D01*
X139820Y196143D01*
X143368Y197613D01*
X161432Y197613D01*
X164980Y196143D01*
X167695Y193428D01*
X169165Y189880D01*
X169165Y186040D01*
X167695Y182492D01*
X164980Y179777D01*
X161432Y178307D01*
X143368Y178307D01*
G37*
%LPD*%
%LPC*%
G36*
X157338Y293877D02*
X157338Y293877D01*
X153790Y295347D01*
X151075Y298062D01*
X149605Y301610D01*
X149605Y305450D01*
X151075Y308998D01*
X153790Y311713D01*
X157338Y313183D01*
X175402Y313183D01*
X178950Y311713D01*
X181665Y308998D01*
X183135Y305450D01*
X183135Y301610D01*
X181665Y298062D01*
X178950Y295347D01*
X175402Y293877D01*
X157338Y293877D01*
G37*
%LPD*%
%LPC*%
G36*
X602235Y715588D02*
X602235Y715588D01*
X600747Y717076D01*
X600747Y735277D01*
X602235Y736765D01*
X620436Y736765D01*
X621925Y735277D01*
X621925Y717076D01*
X620436Y715588D01*
X602235Y715588D01*
G37*
%LPD*%
%LPC*%
G36*
X181400Y714581D02*
X181400Y714581D01*
X179911Y716070D01*
X179911Y734270D01*
X181400Y735759D01*
X199600Y735759D01*
X201089Y734270D01*
X201089Y716070D01*
X199600Y714581D01*
X181400Y714581D01*
G37*
%LPD*%
%LPC*%
G36*
X474026Y711631D02*
X474026Y711631D01*
X469919Y713332D01*
X466775Y716476D01*
X465073Y720584D01*
X465073Y725031D01*
X466775Y729138D01*
X469919Y732282D01*
X474026Y733984D01*
X478473Y733984D01*
X482581Y732282D01*
X485725Y729138D01*
X487426Y725031D01*
X487426Y720584D01*
X485725Y716476D01*
X482581Y713332D01*
X478473Y711631D01*
X474026Y711631D01*
G37*
%LPD*%
%LPC*%
G36*
X372431Y676514D02*
X372431Y676514D01*
X368323Y678215D01*
X365179Y681359D01*
X363477Y685467D01*
X363477Y689914D01*
X365179Y694022D01*
X368323Y697166D01*
X372431Y698867D01*
X376877Y698867D01*
X380985Y697166D01*
X384129Y694022D01*
X385831Y689914D01*
X385831Y685467D01*
X384129Y681359D01*
X380985Y678215D01*
X376877Y676514D01*
X372431Y676514D01*
G37*
%LPD*%
%LPC*%
G36*
X474023Y675273D02*
X474023Y675273D01*
X469915Y676974D01*
X466771Y680118D01*
X465069Y684226D01*
X465069Y688673D01*
X466771Y692781D01*
X469915Y695925D01*
X474023Y697626D01*
X478469Y697626D01*
X482577Y695925D01*
X485721Y692781D01*
X487423Y688673D01*
X487423Y684226D01*
X485721Y680118D01*
X482577Y676974D01*
X478469Y675273D01*
X474023Y675273D01*
G37*
%LPD*%
%LPC*%
G36*
X588301Y646075D02*
X588301Y646075D01*
X584193Y647777D01*
X581049Y650921D01*
X579348Y655029D01*
X579348Y659475D01*
X581049Y663583D01*
X584193Y666727D01*
X588301Y668428D01*
X592748Y668428D01*
X596856Y666727D01*
X600000Y663583D01*
X601701Y659475D01*
X601701Y655029D01*
X600000Y650921D01*
X596856Y647777D01*
X592748Y646075D01*
X588301Y646075D01*
G37*
%LPD*%
%LPC*%
G36*
X588219Y613191D02*
X588219Y613191D01*
X584111Y614893D01*
X580967Y618037D01*
X579266Y622145D01*
X579266Y626591D01*
X580967Y630699D01*
X584111Y633843D01*
X588219Y635545D01*
X592666Y635545D01*
X596774Y633843D01*
X599918Y630699D01*
X601619Y626591D01*
X601619Y622145D01*
X599918Y618037D01*
X596774Y614893D01*
X592666Y613191D01*
X588219Y613191D01*
G37*
%LPD*%
%LPC*%
G36*
X372427Y711276D02*
X372427Y711276D01*
X368319Y712977D01*
X365175Y716122D01*
X363474Y720229D01*
X363474Y724676D01*
X365175Y728784D01*
X368319Y731928D01*
X372427Y733629D01*
X376873Y733629D01*
X380981Y731928D01*
X384125Y728784D01*
X385827Y724676D01*
X385827Y720229D01*
X384125Y716122D01*
X380981Y712977D01*
X376873Y711276D01*
X372427Y711276D01*
G37*
%LPD*%
%LPC*%
G36*
X576602Y134365D02*
X576602Y134365D01*
X571800Y139167D01*
X571724Y139222D01*
X571652Y139283D01*
X571625Y139293D01*
X571601Y139310D01*
X571511Y139338D01*
X571423Y139373D01*
X571394Y139374D01*
X571366Y139383D01*
X571271Y139380D01*
X571177Y139385D01*
X571149Y139377D01*
X571120Y139376D01*
X571031Y139344D01*
X570940Y139319D01*
X570916Y139302D01*
X570889Y139292D01*
X570815Y139233D01*
X570737Y139180D01*
X570714Y139152D01*
X570697Y139138D01*
X570679Y139111D01*
X570629Y139052D01*
X569954Y138041D01*
X569936Y138016D01*
X569846Y137912D01*
X569585Y137552D01*
X568567Y136535D01*
X567840Y136006D01*
X567242Y135607D01*
X566442Y135199D01*
X566121Y135066D01*
X565777Y134924D01*
X564923Y134646D01*
X564387Y134540D01*
X564387Y143256D01*
X564384Y143282D01*
X564386Y143308D01*
X564364Y143455D01*
X564360Y143491D01*
X564360Y143495D01*
X564368Y143520D01*
X564387Y143764D01*
X564387Y152480D01*
X564923Y152374D01*
X565777Y152096D01*
X566121Y151954D01*
X566442Y151821D01*
X567242Y151413D01*
X567840Y151014D01*
X568567Y150485D01*
X569585Y149468D01*
X569846Y149108D01*
X569890Y149061D01*
X569907Y149036D01*
X569930Y149015D01*
X570629Y147968D01*
X570694Y147900D01*
X570753Y147826D01*
X570777Y147810D01*
X570797Y147789D01*
X570880Y147744D01*
X570959Y147693D01*
X570988Y147686D01*
X571014Y147672D01*
X571106Y147656D01*
X571198Y147633D01*
X571227Y147635D01*
X571256Y147630D01*
X571349Y147645D01*
X571443Y147652D01*
X571470Y147663D01*
X571499Y147668D01*
X571583Y147711D01*
X571670Y147748D01*
X571698Y147771D01*
X571717Y147781D01*
X571740Y147805D01*
X571800Y147853D01*
X576602Y152655D01*
X584178Y152655D01*
X589535Y147298D01*
X589535Y139722D01*
X584178Y134365D01*
X576602Y134365D01*
G37*
%LPD*%
%LPC*%
G36*
X143833Y162875D02*
X143833Y162875D01*
X143861Y162883D01*
X143890Y162884D01*
X143979Y162916D01*
X144070Y162941D01*
X144094Y162958D01*
X144121Y162968D01*
X144195Y163027D01*
X144273Y163080D01*
X144296Y163108D01*
X144313Y163122D01*
X144331Y163149D01*
X144381Y163208D01*
X145056Y164219D01*
X145074Y164244D01*
X145164Y164348D01*
X145425Y164707D01*
X146443Y165725D01*
X147170Y166254D01*
X147768Y166653D01*
X148568Y167061D01*
X148889Y167194D01*
X149233Y167336D01*
X150087Y167614D01*
X150423Y167681D01*
X150623Y167720D01*
X150623Y159004D01*
X150626Y158978D01*
X150624Y158952D01*
X150646Y158805D01*
X150650Y158769D01*
X150649Y158765D01*
X150642Y158740D01*
X150623Y158496D01*
X150623Y149780D01*
X150423Y149819D01*
X150087Y149886D01*
X149233Y150164D01*
X148889Y150306D01*
X148568Y150439D01*
X147768Y150847D01*
X147170Y151246D01*
X146443Y151775D01*
X145425Y152793D01*
X145164Y153152D01*
X145085Y153238D01*
X144381Y154292D01*
X144316Y154361D01*
X144257Y154434D01*
X144233Y154450D01*
X144213Y154471D01*
X144130Y154516D01*
X144051Y154567D01*
X144022Y154574D01*
X143996Y154588D01*
X143904Y154604D01*
X143812Y154627D01*
X143783Y154625D01*
X143754Y154630D01*
X143661Y154615D01*
X143567Y154608D01*
X143540Y154597D01*
X143511Y154592D01*
X143427Y154549D01*
X143340Y154512D01*
X143312Y154489D01*
X143293Y154479D01*
X143270Y154455D01*
X143210Y154407D01*
X138408Y149605D01*
X130832Y149605D01*
X125475Y154962D01*
X125475Y162538D01*
X130832Y167895D01*
X138408Y167895D01*
X143210Y163093D01*
X143286Y163038D01*
X143358Y162977D01*
X143386Y162967D01*
X143409Y162950D01*
X143499Y162922D01*
X143587Y162887D01*
X143616Y162886D01*
X143644Y162877D01*
X143739Y162880D01*
X143833Y162875D01*
G37*
%LPD*%
%LPC*%
G36*
X78762Y619505D02*
X78762Y619505D01*
X73405Y624862D01*
X73405Y632438D01*
X78207Y637240D01*
X78262Y637316D01*
X78323Y637388D01*
X78333Y637416D01*
X78350Y637439D01*
X78378Y637529D01*
X78413Y637617D01*
X78414Y637646D01*
X78423Y637674D01*
X78420Y637769D01*
X78425Y637863D01*
X78417Y637891D01*
X78416Y637920D01*
X78384Y638009D01*
X78359Y638100D01*
X78342Y638124D01*
X78332Y638151D01*
X78273Y638225D01*
X78220Y638303D01*
X78192Y638326D01*
X78178Y638343D01*
X78151Y638361D01*
X78092Y638411D01*
X77115Y639063D01*
X77081Y639086D01*
X77056Y639104D01*
X76952Y639194D01*
X76593Y639455D01*
X75575Y640473D01*
X75046Y641200D01*
X74647Y641798D01*
X74239Y642598D01*
X73964Y643263D01*
X73686Y644117D01*
X73667Y644213D01*
X73580Y644653D01*
X82296Y644653D01*
X82322Y644656D01*
X82348Y644654D01*
X82495Y644676D01*
X82531Y644680D01*
X82535Y644679D01*
X82560Y644672D01*
X82804Y644653D01*
X91520Y644653D01*
X91414Y644117D01*
X91136Y643263D01*
X90861Y642598D01*
X90453Y641798D01*
X90054Y641200D01*
X89525Y640473D01*
X88507Y639455D01*
X88148Y639194D01*
X88062Y639115D01*
X87008Y638411D01*
X86939Y638346D01*
X86866Y638287D01*
X86850Y638263D01*
X86829Y638243D01*
X86784Y638160D01*
X86733Y638081D01*
X86726Y638052D01*
X86712Y638026D01*
X86696Y637934D01*
X86673Y637842D01*
X86675Y637813D01*
X86670Y637784D01*
X86685Y637691D01*
X86692Y637597D01*
X86703Y637570D01*
X86708Y637541D01*
X86751Y637457D01*
X86788Y637370D01*
X86811Y637342D01*
X86821Y637323D01*
X86845Y637300D01*
X86893Y637240D01*
X91695Y632438D01*
X91695Y624862D01*
X86338Y619505D01*
X78762Y619505D01*
G37*
%LPD*%
%LPC*%
G36*
X553742Y629665D02*
X553742Y629665D01*
X548385Y635022D01*
X548385Y642598D01*
X553187Y647400D01*
X553242Y647476D01*
X553303Y647548D01*
X553313Y647576D01*
X553330Y647599D01*
X553358Y647689D01*
X553393Y647777D01*
X553394Y647806D01*
X553403Y647834D01*
X553400Y647929D01*
X553405Y648023D01*
X553397Y648051D01*
X553396Y648080D01*
X553364Y648169D01*
X553339Y648260D01*
X553322Y648284D01*
X553312Y648311D01*
X553253Y648385D01*
X553200Y648463D01*
X553172Y648486D01*
X553158Y648503D01*
X553131Y648521D01*
X553072Y648571D01*
X552061Y649246D01*
X552036Y649264D01*
X551932Y649354D01*
X551573Y649615D01*
X550555Y650633D01*
X550026Y651360D01*
X549627Y651958D01*
X549219Y652758D01*
X549135Y652961D01*
X548951Y653405D01*
X548944Y653423D01*
X548666Y654277D01*
X548615Y654534D01*
X548560Y654813D01*
X557276Y654813D01*
X557302Y654816D01*
X557328Y654814D01*
X557475Y654836D01*
X557511Y654840D01*
X557515Y654839D01*
X557540Y654832D01*
X557784Y654813D01*
X566500Y654813D01*
X566394Y654277D01*
X566116Y653423D01*
X566109Y653405D01*
X565925Y652961D01*
X565841Y652758D01*
X565433Y651958D01*
X565034Y651360D01*
X564505Y650633D01*
X563487Y649615D01*
X563128Y649354D01*
X563105Y649332D01*
X563089Y649322D01*
X563054Y649286D01*
X563042Y649275D01*
X561988Y648571D01*
X561919Y648506D01*
X561846Y648447D01*
X561830Y648423D01*
X561809Y648403D01*
X561764Y648320D01*
X561713Y648241D01*
X561706Y648212D01*
X561692Y648186D01*
X561676Y648094D01*
X561653Y648002D01*
X561655Y647973D01*
X561650Y647944D01*
X561665Y647851D01*
X561672Y647757D01*
X561683Y647730D01*
X561688Y647701D01*
X561731Y647617D01*
X561768Y647530D01*
X561791Y647502D01*
X561801Y647483D01*
X561825Y647460D01*
X561873Y647400D01*
X566675Y642598D01*
X566675Y635022D01*
X561318Y629665D01*
X553742Y629665D01*
G37*
%LPD*%
%LPC*%
G36*
X33042Y618235D02*
X33042Y618235D01*
X27685Y623592D01*
X27685Y631168D01*
X32487Y635970D01*
X32542Y636046D01*
X32603Y636118D01*
X32613Y636145D01*
X32630Y636169D01*
X32658Y636259D01*
X32693Y636347D01*
X32694Y636376D01*
X32703Y636404D01*
X32700Y636499D01*
X32705Y636593D01*
X32697Y636621D01*
X32696Y636650D01*
X32664Y636739D01*
X32639Y636830D01*
X32622Y636854D01*
X32612Y636881D01*
X32553Y636955D01*
X32500Y637033D01*
X32472Y637056D01*
X32458Y637073D01*
X32431Y637091D01*
X32372Y637141D01*
X31432Y637769D01*
X31361Y637816D01*
X31336Y637834D01*
X31232Y637924D01*
X30872Y638185D01*
X29855Y639203D01*
X29326Y639930D01*
X28927Y640528D01*
X28519Y641328D01*
X28244Y641993D01*
X27966Y642847D01*
X27860Y643383D01*
X36576Y643383D01*
X36602Y643386D01*
X36628Y643384D01*
X36775Y643406D01*
X36811Y643410D01*
X36815Y643409D01*
X36840Y643402D01*
X37084Y643383D01*
X45800Y643383D01*
X45694Y642847D01*
X45416Y641993D01*
X45141Y641328D01*
X44733Y640528D01*
X44334Y639930D01*
X43805Y639203D01*
X42788Y638185D01*
X42428Y637924D01*
X42342Y637845D01*
X42326Y637834D01*
X41288Y637141D01*
X41220Y637076D01*
X41146Y637017D01*
X41130Y636993D01*
X41109Y636973D01*
X41064Y636890D01*
X41013Y636811D01*
X41006Y636782D01*
X40992Y636756D01*
X40976Y636664D01*
X40953Y636572D01*
X40955Y636543D01*
X40950Y636514D01*
X40965Y636421D01*
X40972Y636327D01*
X40983Y636300D01*
X40988Y636271D01*
X41031Y636187D01*
X41068Y636100D01*
X41091Y636072D01*
X41101Y636053D01*
X41125Y636030D01*
X41173Y635970D01*
X45975Y631168D01*
X45975Y623592D01*
X40618Y618235D01*
X33042Y618235D01*
G37*
%LPD*%
%LPC*%
G36*
X510555Y639290D02*
X510555Y639290D01*
X510530Y639298D01*
X510286Y639317D01*
X501395Y639317D01*
X501395Y641328D01*
X506163Y646096D01*
X506190Y646133D01*
X506224Y646164D01*
X506261Y646232D01*
X506307Y646295D01*
X506320Y646339D01*
X506342Y646379D01*
X506356Y646456D01*
X506379Y646530D01*
X506378Y646576D01*
X506386Y646621D01*
X506375Y646698D01*
X506373Y646776D01*
X506357Y646819D01*
X506350Y646865D01*
X506315Y646934D01*
X506288Y647007D01*
X506259Y647043D01*
X506239Y647084D01*
X506183Y647139D01*
X506134Y647199D01*
X506096Y647224D01*
X506063Y647256D01*
X505943Y647322D01*
X505927Y647332D01*
X505923Y647334D01*
X505916Y647337D01*
X505360Y647567D01*
X502787Y650140D01*
X501395Y653501D01*
X501395Y657139D01*
X502787Y660500D01*
X505360Y663073D01*
X508721Y664465D01*
X512359Y664465D01*
X515720Y663073D01*
X518293Y660500D01*
X519685Y657139D01*
X519685Y653501D01*
X518293Y650140D01*
X515720Y647567D01*
X515164Y647337D01*
X515125Y647313D01*
X515082Y647297D01*
X515021Y647249D01*
X514955Y647208D01*
X514926Y647172D01*
X514890Y647143D01*
X514848Y647078D01*
X514798Y647018D01*
X514782Y646975D01*
X514757Y646937D01*
X514738Y646861D01*
X514710Y646788D01*
X514708Y646743D01*
X514697Y646698D01*
X514703Y646621D01*
X514700Y646543D01*
X514712Y646499D01*
X514716Y646453D01*
X514746Y646381D01*
X514768Y646306D01*
X514794Y646269D01*
X514812Y646227D01*
X514898Y646120D01*
X514908Y646104D01*
X514912Y646101D01*
X514917Y646096D01*
X519685Y641328D01*
X519685Y639317D01*
X510794Y639317D01*
X510768Y639314D01*
X510742Y639316D01*
X510595Y639294D01*
X510559Y639290D01*
X510555Y639290D01*
G37*
%LPD*%
%LPC*%
G36*
X355791Y576924D02*
X355791Y576924D01*
X355868Y576935D01*
X355946Y576937D01*
X355989Y576953D01*
X356035Y576960D01*
X356104Y576995D01*
X356177Y577022D01*
X356213Y577051D01*
X356254Y577071D01*
X356309Y577127D01*
X356369Y577176D01*
X356394Y577214D01*
X356426Y577247D01*
X356492Y577367D01*
X356502Y577383D01*
X356504Y577387D01*
X356507Y577394D01*
X356737Y577950D01*
X359310Y580523D01*
X362671Y581915D01*
X366309Y581915D01*
X369670Y580523D01*
X372243Y577950D01*
X373635Y574589D01*
X373635Y570951D01*
X372243Y567590D01*
X369670Y565017D01*
X366309Y563625D01*
X362671Y563625D01*
X359310Y565017D01*
X356737Y567590D01*
X356507Y568146D01*
X356483Y568185D01*
X356467Y568228D01*
X356419Y568289D01*
X356378Y568355D01*
X356342Y568384D01*
X356313Y568420D01*
X356248Y568462D01*
X356188Y568512D01*
X356145Y568528D01*
X356107Y568553D01*
X356031Y568572D01*
X355958Y568600D01*
X355913Y568602D01*
X355868Y568613D01*
X355791Y568607D01*
X355713Y568610D01*
X355669Y568598D01*
X355623Y568594D01*
X355551Y568564D01*
X355476Y568542D01*
X355439Y568516D01*
X355397Y568498D01*
X355290Y568412D01*
X355274Y568402D01*
X355271Y568398D01*
X355266Y568393D01*
X350498Y563625D01*
X348487Y563625D01*
X348487Y572516D01*
X348484Y572542D01*
X348486Y572568D01*
X348464Y572715D01*
X348460Y572751D01*
X348460Y572755D01*
X348468Y572780D01*
X348487Y573024D01*
X348487Y581915D01*
X350498Y581915D01*
X355266Y577147D01*
X355303Y577120D01*
X355334Y577086D01*
X355402Y577049D01*
X355465Y577003D01*
X355509Y576990D01*
X355549Y576968D01*
X355626Y576954D01*
X355700Y576931D01*
X355746Y576932D01*
X355791Y576924D01*
G37*
%LPD*%
%LPC*%
G36*
X550101Y456274D02*
X550101Y456274D01*
X550178Y456285D01*
X550256Y456287D01*
X550299Y456303D01*
X550345Y456310D01*
X550414Y456345D01*
X550487Y456372D01*
X550523Y456401D01*
X550564Y456421D01*
X550619Y456477D01*
X550679Y456526D01*
X550704Y456564D01*
X550736Y456597D01*
X550802Y456717D01*
X550812Y456733D01*
X550814Y456737D01*
X550817Y456744D01*
X551047Y457300D01*
X553620Y459873D01*
X556981Y461265D01*
X560619Y461265D01*
X563980Y459873D01*
X566553Y457300D01*
X567945Y453939D01*
X567945Y450301D01*
X566553Y446940D01*
X563980Y444367D01*
X560619Y442975D01*
X556981Y442975D01*
X553620Y444367D01*
X551047Y446940D01*
X550817Y447496D01*
X550793Y447535D01*
X550777Y447578D01*
X550729Y447639D01*
X550688Y447705D01*
X550652Y447734D01*
X550623Y447770D01*
X550558Y447812D01*
X550498Y447862D01*
X550455Y447878D01*
X550417Y447903D01*
X550341Y447922D01*
X550268Y447950D01*
X550223Y447952D01*
X550178Y447963D01*
X550101Y447957D01*
X550023Y447960D01*
X549979Y447948D01*
X549933Y447944D01*
X549861Y447914D01*
X549786Y447892D01*
X549749Y447866D01*
X549707Y447848D01*
X549600Y447762D01*
X549584Y447752D01*
X549581Y447748D01*
X549576Y447743D01*
X544808Y442975D01*
X542797Y442975D01*
X542797Y451866D01*
X542794Y451892D01*
X542796Y451918D01*
X542774Y452065D01*
X542770Y452101D01*
X542770Y452105D01*
X542778Y452130D01*
X542797Y452374D01*
X542797Y461265D01*
X544808Y461265D01*
X549576Y456497D01*
X549613Y456470D01*
X549644Y456436D01*
X549712Y456399D01*
X549775Y456353D01*
X549819Y456340D01*
X549859Y456318D01*
X549936Y456304D01*
X550010Y456281D01*
X550056Y456282D01*
X550101Y456274D01*
G37*
%LPD*%
%LPC*%
G36*
X198007Y451200D02*
X198007Y451200D01*
X198051Y451212D01*
X198097Y451216D01*
X198169Y451246D01*
X198244Y451268D01*
X198281Y451294D01*
X198323Y451312D01*
X198430Y451397D01*
X198446Y451408D01*
X198449Y451412D01*
X198454Y451417D01*
X203222Y456185D01*
X205233Y456185D01*
X205233Y447294D01*
X205236Y447268D01*
X205234Y447242D01*
X205256Y447095D01*
X205260Y447059D01*
X205259Y447055D01*
X205252Y447030D01*
X205233Y446786D01*
X205233Y437895D01*
X203222Y437895D01*
X198454Y442663D01*
X198417Y442690D01*
X198386Y442724D01*
X198318Y442761D01*
X198255Y442807D01*
X198211Y442820D01*
X198171Y442842D01*
X198094Y442856D01*
X198020Y442879D01*
X197974Y442878D01*
X197929Y442886D01*
X197852Y442875D01*
X197774Y442873D01*
X197731Y442857D01*
X197685Y442850D01*
X197616Y442815D01*
X197543Y442788D01*
X197507Y442759D01*
X197466Y442739D01*
X197411Y442683D01*
X197351Y442634D01*
X197326Y442596D01*
X197294Y442563D01*
X197228Y442443D01*
X197218Y442427D01*
X197216Y442423D01*
X197213Y442416D01*
X196983Y441860D01*
X194410Y439287D01*
X191049Y437895D01*
X187411Y437895D01*
X184050Y439287D01*
X181477Y441860D01*
X180085Y445221D01*
X180085Y448859D01*
X181477Y452220D01*
X184050Y454793D01*
X187411Y456185D01*
X191049Y456185D01*
X194410Y454793D01*
X196983Y452220D01*
X197213Y451664D01*
X197237Y451625D01*
X197253Y451582D01*
X197301Y451521D01*
X197342Y451455D01*
X197378Y451426D01*
X197407Y451390D01*
X197472Y451348D01*
X197532Y451298D01*
X197575Y451282D01*
X197613Y451257D01*
X197689Y451238D01*
X197762Y451210D01*
X197807Y451208D01*
X197852Y451197D01*
X197929Y451203D01*
X198007Y451200D01*
G37*
%LPD*%
%LPC*%
G36*
X348487Y609345D02*
X348487Y609345D01*
X348487Y618236D01*
X348484Y618262D01*
X348486Y618288D01*
X348464Y618435D01*
X348460Y618471D01*
X348460Y618475D01*
X348468Y618500D01*
X348487Y618744D01*
X348487Y627635D01*
X350498Y627635D01*
X355266Y622867D01*
X355303Y622840D01*
X355334Y622806D01*
X355402Y622769D01*
X355465Y622723D01*
X355509Y622710D01*
X355549Y622688D01*
X355626Y622674D01*
X355700Y622651D01*
X355746Y622652D01*
X355791Y622644D01*
X355868Y622655D01*
X355946Y622657D01*
X355989Y622673D01*
X356035Y622680D01*
X356104Y622715D01*
X356177Y622742D01*
X356213Y622771D01*
X356254Y622791D01*
X356309Y622847D01*
X356369Y622896D01*
X356394Y622934D01*
X356426Y622967D01*
X356492Y623087D01*
X356502Y623103D01*
X356504Y623107D01*
X356507Y623114D01*
X356737Y623670D01*
X359310Y626243D01*
X362671Y627635D01*
X366309Y627635D01*
X369670Y626243D01*
X372243Y623670D01*
X373635Y620309D01*
X373635Y616671D01*
X372243Y613310D01*
X369670Y610737D01*
X366309Y609345D01*
X362671Y609345D01*
X359310Y610737D01*
X356737Y613310D01*
X356507Y613866D01*
X356483Y613905D01*
X356467Y613948D01*
X356420Y614007D01*
X356387Y614063D01*
X356383Y614066D01*
X356378Y614075D01*
X356342Y614104D01*
X356313Y614140D01*
X356248Y614182D01*
X356224Y614202D01*
X356200Y614223D01*
X356198Y614223D01*
X356188Y614232D01*
X356145Y614248D01*
X356107Y614273D01*
X356031Y614292D01*
X355958Y614320D01*
X355913Y614322D01*
X355868Y614333D01*
X355831Y614330D01*
X355805Y614333D01*
X355801Y614333D01*
X355770Y614328D01*
X355713Y614330D01*
X355669Y614318D01*
X355623Y614314D01*
X355584Y614298D01*
X355558Y614293D01*
X355526Y614276D01*
X355476Y614262D01*
X355439Y614236D01*
X355397Y614218D01*
X355360Y614188D01*
X355341Y614178D01*
X355321Y614157D01*
X355290Y614132D01*
X355274Y614122D01*
X355271Y614118D01*
X355266Y614113D01*
X350498Y609345D01*
X348487Y609345D01*
G37*
%LPD*%
%LPC*%
G36*
X628093Y132968D02*
X628093Y132968D01*
X621918Y139143D01*
X621918Y147877D01*
X628093Y154052D01*
X636827Y154052D01*
X643002Y147877D01*
X643002Y139143D01*
X636827Y132968D01*
X628093Y132968D01*
G37*
%LPD*%
%LPC*%
G36*
X71833Y148208D02*
X71833Y148208D01*
X65658Y154383D01*
X65658Y163117D01*
X71833Y169292D01*
X80567Y169292D01*
X86742Y163117D01*
X86742Y154383D01*
X80567Y148208D01*
X71833Y148208D01*
G37*
%LPD*%
%LPC*%
G36*
X184863Y397128D02*
X184863Y397128D01*
X178688Y403303D01*
X178688Y412037D01*
X184863Y418212D01*
X193597Y418212D01*
X199772Y412037D01*
X199772Y403303D01*
X193597Y397128D01*
X184863Y397128D01*
G37*
%LPD*%
%LPC*%
G36*
X626823Y268858D02*
X626823Y268858D01*
X620648Y275033D01*
X620648Y283767D01*
X626823Y289942D01*
X635557Y289942D01*
X641732Y283767D01*
X641732Y275033D01*
X635557Y268858D01*
X626823Y268858D01*
G37*
%LPD*%
%LPC*%
G36*
X554433Y403478D02*
X554433Y403478D01*
X548258Y409653D01*
X548258Y418387D01*
X554433Y424562D01*
X563167Y424562D01*
X569342Y418387D01*
X569342Y409653D01*
X563167Y403478D01*
X554433Y403478D01*
G37*
%LPD*%
%LPC*%
G36*
X122633Y284098D02*
X122633Y284098D01*
X116458Y290273D01*
X116458Y299007D01*
X122633Y305182D01*
X131367Y305182D01*
X137542Y299007D01*
X137542Y290273D01*
X131367Y284098D01*
X122633Y284098D01*
G37*
%LPD*%
%LPC*%
G36*
X153113Y620648D02*
X153113Y620648D01*
X146938Y626823D01*
X146938Y635557D01*
X153113Y641732D01*
X161847Y641732D01*
X168022Y635557D01*
X168022Y626823D01*
X161847Y620648D01*
X153113Y620648D01*
G37*
%LPD*%
%LPC*%
G36*
X162994Y714581D02*
X162994Y714581D01*
X159102Y716193D01*
X156123Y719172D01*
X154511Y723064D01*
X154511Y727276D01*
X156123Y731168D01*
X159102Y734147D01*
X162994Y735759D01*
X167206Y735759D01*
X171098Y734147D01*
X174077Y731168D01*
X175689Y727276D01*
X175689Y723064D01*
X174077Y719172D01*
X171098Y716193D01*
X167206Y714581D01*
X162994Y714581D01*
G37*
%LPD*%
%LPC*%
G36*
X583830Y715588D02*
X583830Y715588D01*
X579938Y717200D01*
X576959Y720179D01*
X575347Y724071D01*
X575347Y728283D01*
X576959Y732175D01*
X579938Y735153D01*
X583830Y736765D01*
X588042Y736765D01*
X591934Y735153D01*
X594912Y732175D01*
X596525Y728283D01*
X596525Y724071D01*
X594912Y720179D01*
X591934Y717200D01*
X588042Y715588D01*
X583830Y715588D01*
G37*
%LPD*%
%LPC*%
G36*
X558430Y715588D02*
X558430Y715588D01*
X554538Y717200D01*
X551559Y720179D01*
X549947Y724071D01*
X549947Y728283D01*
X551559Y732175D01*
X554538Y735153D01*
X558430Y736765D01*
X562642Y736765D01*
X566534Y735153D01*
X569512Y732175D01*
X571125Y728283D01*
X571125Y724071D01*
X569512Y720179D01*
X566534Y717200D01*
X562642Y715588D01*
X558430Y715588D01*
G37*
%LPD*%
%LPC*%
G36*
X137594Y714581D02*
X137594Y714581D01*
X133702Y716193D01*
X130723Y719172D01*
X129111Y723064D01*
X129111Y727276D01*
X130723Y731168D01*
X133702Y734147D01*
X137594Y735759D01*
X141806Y735759D01*
X145698Y734147D01*
X148677Y731168D01*
X150289Y727276D01*
X150289Y723064D01*
X148677Y719172D01*
X145698Y716193D01*
X141806Y714581D01*
X137594Y714581D01*
G37*
%LPD*%
%LPC*%
G36*
X262063Y619378D02*
X262063Y619378D01*
X258189Y620983D01*
X255223Y623949D01*
X253618Y627823D01*
X253618Y632017D01*
X255223Y635891D01*
X258189Y638857D01*
X262063Y640462D01*
X266257Y640462D01*
X270131Y638857D01*
X273097Y635891D01*
X274702Y632017D01*
X274702Y627823D01*
X273097Y623949D01*
X270131Y620983D01*
X266257Y619378D01*
X262063Y619378D01*
G37*
%LPD*%
%LPC*%
G36*
X600522Y93217D02*
X600522Y93217D01*
X594867Y98872D01*
X594867Y106868D01*
X600522Y112523D01*
X608518Y112523D01*
X614173Y106868D01*
X614173Y98872D01*
X608518Y93217D01*
X600522Y93217D01*
G37*
%LPD*%
%LPC*%
G36*
X415102Y91947D02*
X415102Y91947D01*
X409447Y97602D01*
X409447Y105598D01*
X415102Y111253D01*
X423098Y111253D01*
X428753Y105598D01*
X428753Y97602D01*
X423098Y91947D01*
X415102Y91947D01*
G37*
%LPD*%
%LPC*%
G36*
X338902Y91947D02*
X338902Y91947D01*
X333247Y97602D01*
X333247Y105598D01*
X338902Y111253D01*
X346898Y111253D01*
X352553Y105598D01*
X352553Y97602D01*
X346898Y91947D01*
X338902Y91947D01*
G37*
%LPD*%
%LPC*%
G36*
X427028Y645319D02*
X427028Y645319D01*
X421373Y650973D01*
X421373Y658970D01*
X427028Y664624D01*
X435024Y664624D01*
X440679Y658970D01*
X440679Y650973D01*
X435024Y645319D01*
X427028Y645319D01*
G37*
%LPD*%
%LPC*%
G36*
X72202Y255777D02*
X72202Y255777D01*
X66547Y261432D01*
X66547Y269428D01*
X72202Y275083D01*
X80198Y275083D01*
X85853Y269428D01*
X85853Y261432D01*
X80198Y255777D01*
X72202Y255777D01*
G37*
%LPD*%
%LPC*%
G36*
X465902Y625347D02*
X465902Y625347D01*
X460247Y631002D01*
X460247Y638998D01*
X465902Y644653D01*
X473898Y644653D01*
X479553Y638998D01*
X479553Y631002D01*
X473898Y625347D01*
X465902Y625347D01*
G37*
%LPD*%
%LPC*%
G36*
X465902Y599947D02*
X465902Y599947D01*
X460247Y605602D01*
X460247Y613598D01*
X465902Y619253D01*
X473898Y619253D01*
X479553Y613598D01*
X479553Y605602D01*
X473898Y599947D01*
X465902Y599947D01*
G37*
%LPD*%
%LPC*%
G36*
X497652Y565657D02*
X497652Y565657D01*
X491997Y571312D01*
X491997Y579308D01*
X497652Y584963D01*
X505648Y584963D01*
X511303Y579308D01*
X511303Y571312D01*
X505648Y565657D01*
X497652Y565657D01*
G37*
%LPD*%
%LPC*%
G36*
X395944Y565185D02*
X395944Y565185D01*
X390290Y570840D01*
X390290Y578836D01*
X395944Y584491D01*
X403941Y584491D01*
X409595Y578836D01*
X409595Y570840D01*
X403941Y565185D01*
X395944Y565185D01*
G37*
%LPD*%
%LPC*%
G36*
X472144Y565185D02*
X472144Y565185D01*
X466490Y570840D01*
X466490Y578836D01*
X472144Y584491D01*
X480141Y584491D01*
X485795Y578836D01*
X485795Y570840D01*
X480141Y565185D01*
X472144Y565185D01*
G37*
%LPD*%
%LPC*%
G36*
X507812Y538987D02*
X507812Y538987D01*
X502157Y544642D01*
X502157Y552638D01*
X507812Y558293D01*
X515808Y558293D01*
X521463Y552638D01*
X521463Y544642D01*
X515808Y538987D01*
X507812Y538987D01*
G37*
%LPD*%
%LPC*%
G36*
X431612Y538987D02*
X431612Y538987D01*
X425957Y544642D01*
X425957Y552638D01*
X431612Y558293D01*
X439608Y558293D01*
X445263Y552638D01*
X445263Y544642D01*
X439608Y538987D01*
X431612Y538987D01*
G37*
%LPD*%
%LPC*%
G36*
X586552Y536447D02*
X586552Y536447D01*
X580897Y542102D01*
X580897Y550098D01*
X586552Y555753D01*
X594548Y555753D01*
X600203Y550098D01*
X600203Y542102D01*
X594548Y536447D01*
X586552Y536447D01*
G37*
%LPD*%
%LPC*%
G36*
X72202Y536447D02*
X72202Y536447D01*
X66547Y542102D01*
X66547Y550098D01*
X72202Y555753D01*
X80198Y555753D01*
X85853Y550098D01*
X85853Y542102D01*
X80198Y536447D01*
X72202Y536447D01*
G37*
%LPD*%
%LPC*%
G36*
X148402Y536447D02*
X148402Y536447D01*
X142747Y542102D01*
X142747Y550098D01*
X148402Y555753D01*
X156398Y555753D01*
X162053Y550098D01*
X162053Y542102D01*
X156398Y536447D01*
X148402Y536447D01*
G37*
%LPD*%
%LPC*%
G36*
X662752Y536447D02*
X662752Y536447D01*
X657097Y542102D01*
X657097Y550098D01*
X662752Y555753D01*
X670748Y555753D01*
X676403Y550098D01*
X676403Y542102D01*
X670748Y536447D01*
X662752Y536447D01*
G37*
%LPD*%
%LPC*%
G36*
X431612Y513587D02*
X431612Y513587D01*
X425957Y519242D01*
X425957Y527238D01*
X431612Y532893D01*
X439608Y532893D01*
X445263Y527238D01*
X445263Y519242D01*
X439608Y513587D01*
X431612Y513587D01*
G37*
%LPD*%
%LPC*%
G36*
X643702Y429767D02*
X643702Y429767D01*
X638047Y435422D01*
X638047Y443418D01*
X643702Y449073D01*
X651698Y449073D01*
X657353Y443418D01*
X657353Y435422D01*
X651698Y429767D01*
X643702Y429767D01*
G37*
%LPD*%
%LPC*%
G36*
X98872Y429767D02*
X98872Y429767D01*
X93217Y435422D01*
X93217Y443418D01*
X98872Y449073D01*
X106868Y449073D01*
X112523Y443418D01*
X112523Y435422D01*
X106868Y429767D01*
X98872Y429767D01*
G37*
%LPD*%
%LPC*%
G36*
X338902Y123697D02*
X338902Y123697D01*
X333247Y129352D01*
X333247Y137348D01*
X338902Y143003D01*
X346898Y143003D01*
X352553Y137348D01*
X352553Y129352D01*
X346898Y123697D01*
X338902Y123697D01*
G37*
%LPD*%
%LPC*%
G36*
X338902Y295147D02*
X338902Y295147D01*
X333247Y300802D01*
X333247Y308798D01*
X338902Y314453D01*
X346898Y314453D01*
X352553Y308798D01*
X352553Y300802D01*
X346898Y295147D01*
X338902Y295147D01*
G37*
%LPD*%
%LPC*%
G36*
X553532Y282447D02*
X553532Y282447D01*
X547877Y288102D01*
X547877Y296098D01*
X553532Y301753D01*
X561528Y301753D01*
X567183Y296098D01*
X567183Y288102D01*
X561528Y282447D01*
X553532Y282447D01*
G37*
%LPD*%
%LPC*%
G36*
X415102Y268477D02*
X415102Y268477D01*
X409447Y274132D01*
X409447Y282128D01*
X415102Y287783D01*
X423098Y287783D01*
X428753Y282128D01*
X428753Y274132D01*
X423098Y268477D01*
X415102Y268477D01*
G37*
%LPD*%
%LPC*%
G36*
X338902Y268477D02*
X338902Y268477D01*
X333247Y274132D01*
X333247Y282128D01*
X338902Y287783D01*
X346898Y287783D01*
X352553Y282128D01*
X352553Y274132D01*
X346898Y268477D01*
X338902Y268477D01*
G37*
%LPD*%
%LPC*%
G36*
X148402Y255777D02*
X148402Y255777D01*
X142747Y261432D01*
X142747Y269428D01*
X148402Y275083D01*
X156398Y275083D01*
X162053Y269428D01*
X162053Y261432D01*
X156398Y255777D01*
X148402Y255777D01*
G37*
%LPD*%
%LPC*%
G36*
X677992Y240537D02*
X677992Y240537D01*
X672337Y246192D01*
X672337Y254188D01*
X677992Y259843D01*
X685988Y259843D01*
X691643Y254188D01*
X691643Y246192D01*
X685988Y240537D01*
X677992Y240537D01*
G37*
%LPD*%
%LPC*%
G36*
X601792Y240537D02*
X601792Y240537D01*
X596137Y246192D01*
X596137Y254188D01*
X601792Y259843D01*
X609788Y259843D01*
X615443Y254188D01*
X615443Y246192D01*
X609788Y240537D01*
X601792Y240537D01*
G37*
%LPD*%
%LPC*%
G36*
X72202Y231647D02*
X72202Y231647D01*
X66547Y237302D01*
X66547Y245298D01*
X72202Y250953D01*
X80198Y250953D01*
X85853Y245298D01*
X85853Y237302D01*
X80198Y231647D01*
X72202Y231647D01*
G37*
%LPD*%
%LPC*%
G36*
X601792Y216407D02*
X601792Y216407D01*
X596137Y222062D01*
X596137Y230058D01*
X601792Y235713D01*
X609788Y235713D01*
X615443Y230058D01*
X615443Y222062D01*
X609788Y216407D01*
X601792Y216407D01*
G37*
%LPD*%
%LPC*%
G36*
X553532Y206247D02*
X553532Y206247D01*
X547877Y211902D01*
X547877Y219898D01*
X553532Y225553D01*
X561528Y225553D01*
X567183Y219898D01*
X567183Y211902D01*
X561528Y206247D01*
X553532Y206247D01*
G37*
%LPD*%
%LPC*%
G36*
X451932Y203707D02*
X451932Y203707D01*
X446277Y209362D01*
X446277Y217358D01*
X451932Y223013D01*
X459928Y223013D01*
X465583Y217358D01*
X465583Y209362D01*
X459928Y203707D01*
X451932Y203707D01*
G37*
%LPD*%
%LPC*%
G36*
X528132Y203707D02*
X528132Y203707D01*
X522477Y209362D01*
X522477Y217358D01*
X528132Y223013D01*
X536128Y223013D01*
X541783Y217358D01*
X541783Y209362D01*
X536128Y203707D01*
X528132Y203707D01*
G37*
%LPD*%
%LPC*%
G36*
X453202Y173227D02*
X453202Y173227D01*
X447547Y178882D01*
X447547Y186878D01*
X453202Y192533D01*
X461198Y192533D01*
X466853Y186878D01*
X466853Y178882D01*
X461198Y173227D01*
X453202Y173227D01*
G37*
%LPD*%
%LPC*%
G36*
X415102Y123697D02*
X415102Y123697D01*
X409447Y129352D01*
X409447Y137348D01*
X415102Y143003D01*
X423098Y143003D01*
X428753Y137348D01*
X428753Y129352D01*
X423098Y123697D01*
X415102Y123697D01*
G37*
%LPD*%
%LPC*%
G36*
X524322Y93217D02*
X524322Y93217D01*
X518667Y98872D01*
X518667Y106868D01*
X524322Y112523D01*
X532318Y112523D01*
X537973Y106868D01*
X537973Y98872D01*
X532318Y93217D01*
X524322Y93217D01*
G37*
%LPD*%
%LPC*%
G36*
X307339Y27939D02*
X307339Y27939D01*
X307339Y36069D01*
X313768Y36069D01*
X315426Y35806D01*
X317023Y35287D01*
X318520Y34525D01*
X319878Y33538D01*
X321066Y32350D01*
X321071Y32343D01*
X322053Y30992D01*
X322815Y29495D01*
X323321Y27939D01*
X307339Y27939D01*
G37*
%LPD*%
%LPC*%
G36*
X459739Y27939D02*
X459739Y27939D01*
X459739Y36069D01*
X466168Y36069D01*
X467826Y35806D01*
X469423Y35287D01*
X470920Y34525D01*
X472278Y33538D01*
X473466Y32350D01*
X473471Y32343D01*
X474453Y30992D01*
X475215Y29495D01*
X475721Y27939D01*
X459739Y27939D01*
G37*
%LPD*%
%LPC*%
G36*
X284479Y722629D02*
X284479Y722629D01*
X284479Y738611D01*
X286035Y738105D01*
X287532Y737343D01*
X288890Y736356D01*
X290078Y735168D01*
X291065Y733810D01*
X291827Y732313D01*
X291952Y731928D01*
X292346Y730716D01*
X292609Y729058D01*
X292609Y722629D01*
X284479Y722629D01*
G37*
%LPD*%
%LPC*%
G36*
X284479Y717551D02*
X284479Y717551D01*
X292609Y717551D01*
X292609Y711122D01*
X292346Y709464D01*
X291827Y707867D01*
X291065Y706370D01*
X290736Y705919D01*
X290078Y705012D01*
X288890Y703824D01*
X287532Y702837D01*
X286035Y702075D01*
X284479Y701569D01*
X284479Y717551D01*
G37*
%LPD*%
%LPC*%
G36*
X438679Y27939D02*
X438679Y27939D01*
X439185Y29495D01*
X439947Y30992D01*
X440929Y32343D01*
X440934Y32350D01*
X442122Y33538D01*
X443480Y34525D01*
X444977Y35287D01*
X446574Y35806D01*
X448232Y36069D01*
X454661Y36069D01*
X454661Y27939D01*
X438679Y27939D01*
G37*
%LPD*%
%LPC*%
G36*
X286279Y27939D02*
X286279Y27939D01*
X286785Y29495D01*
X287547Y30992D01*
X288529Y32343D01*
X288534Y32350D01*
X289722Y33538D01*
X291080Y34525D01*
X292577Y35287D01*
X294174Y35806D01*
X295832Y36069D01*
X302261Y36069D01*
X302261Y27939D01*
X286279Y27939D01*
G37*
%LPD*%
%LPC*%
G36*
X307339Y14731D02*
X307339Y14731D01*
X307339Y22861D01*
X323321Y22861D01*
X322815Y21305D01*
X322053Y19808D01*
X321066Y18450D01*
X319878Y17262D01*
X318520Y16275D01*
X317023Y15513D01*
X315426Y14994D01*
X313768Y14731D01*
X307339Y14731D01*
G37*
%LPD*%
%LPC*%
G36*
X459739Y14731D02*
X459739Y14731D01*
X459739Y22861D01*
X475721Y22861D01*
X475215Y21305D01*
X474453Y19808D01*
X473466Y18450D01*
X472278Y17262D01*
X470920Y16275D01*
X469423Y15513D01*
X467826Y14994D01*
X466168Y14731D01*
X459739Y14731D01*
G37*
%LPD*%
%LPC*%
G36*
X271271Y722629D02*
X271271Y722629D01*
X271271Y729058D01*
X271534Y730716D01*
X272053Y732313D01*
X272815Y733810D01*
X273353Y734549D01*
X273792Y735153D01*
X273802Y735168D01*
X274990Y736356D01*
X276348Y737343D01*
X277845Y738105D01*
X279401Y738611D01*
X279401Y722629D01*
X271271Y722629D01*
G37*
%LPD*%
%LPC*%
G36*
X277845Y702075D02*
X277845Y702075D01*
X276348Y702837D01*
X274990Y703824D01*
X273802Y705012D01*
X273144Y705919D01*
X272815Y706370D01*
X272053Y707867D01*
X271534Y709464D01*
X271271Y711122D01*
X271271Y717551D01*
X279401Y717551D01*
X279401Y701569D01*
X277845Y702075D01*
G37*
%LPD*%
%LPC*%
G36*
X448232Y14731D02*
X448232Y14731D01*
X446574Y14994D01*
X444977Y15513D01*
X443480Y16275D01*
X442122Y17262D01*
X440934Y18450D01*
X439947Y19808D01*
X439185Y21305D01*
X438679Y22861D01*
X454661Y22861D01*
X454661Y14731D01*
X448232Y14731D01*
G37*
%LPD*%
%LPC*%
G36*
X295832Y14731D02*
X295832Y14731D01*
X294174Y14994D01*
X292577Y15513D01*
X291080Y16275D01*
X289722Y17262D01*
X288534Y18450D01*
X287547Y19808D01*
X286785Y21305D01*
X286279Y22861D01*
X302261Y22861D01*
X302261Y14731D01*
X295832Y14731D01*
G37*
%LPD*%
%LPC*%
G36*
X103631Y160781D02*
X103631Y160781D01*
X103631Y169292D01*
X105967Y169292D01*
X112142Y163117D01*
X112142Y160781D01*
X103631Y160781D01*
G37*
%LPD*%
%LPC*%
G36*
X609091Y145541D02*
X609091Y145541D01*
X609091Y154052D01*
X611427Y154052D01*
X617602Y147877D01*
X617602Y145541D01*
X609091Y145541D01*
G37*
%LPD*%
%LPC*%
G36*
X535431Y416051D02*
X535431Y416051D01*
X535431Y424562D01*
X537767Y424562D01*
X543942Y418387D01*
X543942Y416051D01*
X535431Y416051D01*
G37*
%LPD*%
%LPC*%
G36*
X658621Y281431D02*
X658621Y281431D01*
X658621Y289942D01*
X660957Y289942D01*
X667132Y283767D01*
X667132Y281431D01*
X658621Y281431D01*
G37*
%LPD*%
%LPC*%
G36*
X266191Y596391D02*
X266191Y596391D01*
X266191Y604902D01*
X268527Y604902D01*
X274702Y598727D01*
X274702Y596391D01*
X266191Y596391D01*
G37*
%LPD*%
%LPC*%
G36*
X216661Y409701D02*
X216661Y409701D01*
X216661Y418212D01*
X218997Y418212D01*
X225172Y412037D01*
X225172Y409701D01*
X216661Y409701D01*
G37*
%LPD*%
%LPC*%
G36*
X103631Y296671D02*
X103631Y296671D01*
X103631Y305182D01*
X105967Y305182D01*
X112142Y299007D01*
X112142Y296671D01*
X103631Y296671D01*
G37*
%LPD*%
%LPC*%
G36*
X253618Y596391D02*
X253618Y596391D01*
X253618Y598727D01*
X259793Y604902D01*
X262129Y604902D01*
X262129Y596391D01*
X253618Y596391D01*
G37*
%LPD*%
%LPC*%
G36*
X522858Y416051D02*
X522858Y416051D01*
X522858Y418387D01*
X529033Y424562D01*
X531369Y424562D01*
X531369Y416051D01*
X522858Y416051D01*
G37*
%LPD*%
%LPC*%
G36*
X204088Y409701D02*
X204088Y409701D01*
X204088Y412037D01*
X210263Y418212D01*
X212599Y418212D01*
X212599Y409701D01*
X204088Y409701D01*
G37*
%LPD*%
%LPC*%
G36*
X91058Y160781D02*
X91058Y160781D01*
X91058Y163117D01*
X97233Y169292D01*
X99569Y169292D01*
X99569Y160781D01*
X91058Y160781D01*
G37*
%LPD*%
%LPC*%
G36*
X266191Y583818D02*
X266191Y583818D01*
X266191Y592329D01*
X274702Y592329D01*
X274702Y589993D01*
X268527Y583818D01*
X266191Y583818D01*
G37*
%LPD*%
%LPC*%
G36*
X596518Y145541D02*
X596518Y145541D01*
X596518Y147877D01*
X602693Y154052D01*
X605029Y154052D01*
X605029Y145541D01*
X596518Y145541D01*
G37*
%LPD*%
%LPC*%
G36*
X535431Y403478D02*
X535431Y403478D01*
X535431Y411989D01*
X543942Y411989D01*
X543942Y409653D01*
X537767Y403478D01*
X535431Y403478D01*
G37*
%LPD*%
%LPC*%
G36*
X646048Y281431D02*
X646048Y281431D01*
X646048Y283767D01*
X652223Y289942D01*
X654559Y289942D01*
X654559Y281431D01*
X646048Y281431D01*
G37*
%LPD*%
%LPC*%
G36*
X91058Y296671D02*
X91058Y296671D01*
X91058Y299007D01*
X97233Y305182D01*
X99569Y305182D01*
X99569Y296671D01*
X91058Y296671D01*
G37*
%LPD*%
%LPC*%
G36*
X658621Y268858D02*
X658621Y268858D01*
X658621Y277369D01*
X667132Y277369D01*
X667132Y275033D01*
X660957Y268858D01*
X658621Y268858D01*
G37*
%LPD*%
%LPC*%
G36*
X609091Y132968D02*
X609091Y132968D01*
X609091Y141479D01*
X617602Y141479D01*
X617602Y139143D01*
X611427Y132968D01*
X609091Y132968D01*
G37*
%LPD*%
%LPC*%
G36*
X103631Y148208D02*
X103631Y148208D01*
X103631Y156719D01*
X112142Y156719D01*
X112142Y154383D01*
X105967Y148208D01*
X103631Y148208D01*
G37*
%LPD*%
%LPC*%
G36*
X103631Y284098D02*
X103631Y284098D01*
X103631Y292609D01*
X112142Y292609D01*
X112142Y290273D01*
X105967Y284098D01*
X103631Y284098D01*
G37*
%LPD*%
%LPC*%
G36*
X216661Y397128D02*
X216661Y397128D01*
X216661Y405639D01*
X225172Y405639D01*
X225172Y403303D01*
X218997Y397128D01*
X216661Y397128D01*
G37*
%LPD*%
%LPC*%
G36*
X97233Y284098D02*
X97233Y284098D01*
X91058Y290273D01*
X91058Y292609D01*
X99569Y292609D01*
X99569Y284098D01*
X97233Y284098D01*
G37*
%LPD*%
%LPC*%
G36*
X210263Y397128D02*
X210263Y397128D01*
X204088Y403303D01*
X204088Y405639D01*
X212599Y405639D01*
X212599Y397128D01*
X210263Y397128D01*
G37*
%LPD*%
%LPC*%
G36*
X259793Y583818D02*
X259793Y583818D01*
X253618Y589993D01*
X253618Y592329D01*
X262129Y592329D01*
X262129Y583818D01*
X259793Y583818D01*
G37*
%LPD*%
%LPC*%
G36*
X652223Y268858D02*
X652223Y268858D01*
X646048Y275033D01*
X646048Y277369D01*
X654559Y277369D01*
X654559Y268858D01*
X652223Y268858D01*
G37*
%LPD*%
%LPC*%
G36*
X602693Y132968D02*
X602693Y132968D01*
X596518Y139143D01*
X596518Y141479D01*
X605029Y141479D01*
X605029Y132968D01*
X602693Y132968D01*
G37*
%LPD*%
%LPC*%
G36*
X529033Y403478D02*
X529033Y403478D01*
X522858Y409653D01*
X522858Y411989D01*
X531369Y411989D01*
X531369Y403478D01*
X529033Y403478D01*
G37*
%LPD*%
%LPC*%
G36*
X97233Y148208D02*
X97233Y148208D01*
X91058Y154383D01*
X91058Y156719D01*
X99569Y156719D01*
X99569Y148208D01*
X97233Y148208D01*
G37*
%LPD*%
%LPC*%
G36*
X159511Y597661D02*
X159511Y597661D01*
X159511Y605981D01*
X159882Y605923D01*
X159948Y605912D01*
X160987Y605575D01*
X161527Y605399D01*
X163005Y604646D01*
X163189Y604513D01*
X164347Y603671D01*
X165521Y602497D01*
X166496Y601155D01*
X167112Y599947D01*
X167249Y599677D01*
X167558Y598727D01*
X167762Y598098D01*
X167831Y597661D01*
X159511Y597661D01*
G37*
%LPD*%
%LPC*%
G36*
X147129Y597661D02*
X147129Y597661D01*
X147198Y598098D01*
X147402Y598727D01*
X147711Y599677D01*
X147848Y599947D01*
X148464Y601155D01*
X149439Y602497D01*
X150613Y603671D01*
X151771Y604513D01*
X151955Y604646D01*
X153433Y605399D01*
X153973Y605575D01*
X155012Y605912D01*
X155084Y605924D01*
X155449Y605981D01*
X155449Y597661D01*
X147129Y597661D01*
G37*
%LPD*%
%LPC*%
G36*
X159511Y593599D02*
X159511Y593599D01*
X167831Y593599D01*
X167762Y593162D01*
X167249Y591583D01*
X166496Y590105D01*
X166363Y589921D01*
X165521Y588763D01*
X164347Y587589D01*
X163005Y586614D01*
X161527Y585861D01*
X160987Y585685D01*
X160963Y585678D01*
X159948Y585348D01*
X159882Y585337D01*
X159511Y585279D01*
X159511Y593599D01*
G37*
%LPD*%
%LPC*%
G36*
X155084Y585336D02*
X155084Y585336D01*
X155012Y585348D01*
X153997Y585678D01*
X153973Y585685D01*
X153433Y585861D01*
X151955Y586614D01*
X150613Y587589D01*
X149439Y588763D01*
X148597Y589921D01*
X148464Y590105D01*
X147711Y591583D01*
X147198Y593162D01*
X147129Y593599D01*
X155449Y593599D01*
X155449Y585279D01*
X155084Y585336D01*
G37*
%LPD*%
%LPC*%
G36*
X694918Y660045D02*
X694918Y660045D01*
X694918Y668096D01*
X696415Y667610D01*
X697982Y666811D01*
X699406Y665777D01*
X700650Y664533D01*
X701684Y663110D01*
X702482Y661542D01*
X702969Y660045D01*
X694918Y660045D01*
G37*
%LPD*%
%LPC*%
G36*
X694836Y627161D02*
X694836Y627161D01*
X694836Y635213D01*
X696333Y634726D01*
X697900Y633927D01*
X699324Y632893D01*
X700568Y631649D01*
X701602Y630226D01*
X702400Y628659D01*
X702887Y627161D01*
X694836Y627161D01*
G37*
%LPD*%
%LPC*%
G36*
X694918Y654458D02*
X694918Y654458D01*
X702969Y654458D01*
X702879Y654181D01*
X702482Y652961D01*
X701684Y651394D01*
X700650Y649971D01*
X699406Y648727D01*
X697982Y647692D01*
X696415Y646894D01*
X696091Y646788D01*
X694918Y646407D01*
X694918Y654458D01*
G37*
%LPD*%
%LPC*%
G36*
X681280Y660045D02*
X681280Y660045D01*
X681767Y661542D01*
X682565Y663110D01*
X683599Y664533D01*
X684843Y665777D01*
X686267Y666811D01*
X687834Y667610D01*
X689331Y668096D01*
X689331Y660045D01*
X681280Y660045D01*
G37*
%LPD*%
%LPC*%
G36*
X681198Y627161D02*
X681198Y627161D01*
X681685Y628659D01*
X682483Y630226D01*
X683517Y631649D01*
X684761Y632893D01*
X686185Y633927D01*
X687752Y634726D01*
X689249Y635212D01*
X689249Y627161D01*
X681198Y627161D01*
G37*
%LPD*%
%LPC*%
G36*
X694836Y621575D02*
X694836Y621575D01*
X702887Y621575D01*
X702400Y620078D01*
X701602Y618510D01*
X700568Y617087D01*
X699324Y615843D01*
X697900Y614809D01*
X696333Y614010D01*
X694836Y613524D01*
X694836Y621575D01*
G37*
%LPD*%
%LPC*%
G36*
X687752Y614010D02*
X687752Y614010D01*
X686185Y614809D01*
X684761Y615843D01*
X683517Y617087D01*
X682483Y618510D01*
X681685Y620078D01*
X681198Y621575D01*
X689249Y621575D01*
X689249Y613524D01*
X687752Y614010D01*
G37*
%LPD*%
%LPC*%
G36*
X687834Y646894D02*
X687834Y646894D01*
X686267Y647692D01*
X684843Y648727D01*
X683599Y649971D01*
X682565Y651394D01*
X681767Y652961D01*
X681280Y654458D01*
X689331Y654458D01*
X689331Y646407D01*
X687834Y646894D01*
G37*
%LPD*%
%LPC*%
G36*
X535431Y184911D02*
X535431Y184911D01*
X535431Y192533D01*
X537398Y192533D01*
X543053Y186878D01*
X543053Y184911D01*
X535431Y184911D01*
G37*
%LPD*%
%LPC*%
G36*
X513841Y525271D02*
X513841Y525271D01*
X513841Y532893D01*
X515808Y532893D01*
X521463Y527238D01*
X521463Y525271D01*
X513841Y525271D01*
G37*
%LPD*%
%LPC*%
G36*
X421131Y306831D02*
X421131Y306831D01*
X421131Y314453D01*
X423098Y314453D01*
X428753Y308798D01*
X428753Y306831D01*
X421131Y306831D01*
G37*
%LPD*%
%LPC*%
G36*
X649731Y517651D02*
X649731Y517651D01*
X649731Y525273D01*
X651698Y525273D01*
X657353Y519618D01*
X657353Y517651D01*
X649731Y517651D01*
G37*
%LPD*%
%LPC*%
G36*
X104901Y517651D02*
X104901Y517651D01*
X104901Y525273D01*
X106868Y525273D01*
X112523Y519618D01*
X112523Y517651D01*
X104901Y517651D01*
G37*
%LPD*%
%LPC*%
G36*
X154431Y243331D02*
X154431Y243331D01*
X154431Y250953D01*
X156398Y250953D01*
X162053Y245298D01*
X162053Y243331D01*
X154431Y243331D01*
G37*
%LPD*%
%LPC*%
G36*
X684021Y228091D02*
X684021Y228091D01*
X684021Y235713D01*
X685988Y235713D01*
X691643Y230058D01*
X691643Y228091D01*
X684021Y228091D01*
G37*
%LPD*%
%LPC*%
G36*
X356857Y657003D02*
X356857Y657003D01*
X356857Y664624D01*
X358824Y664624D01*
X364479Y658970D01*
X364479Y657003D01*
X356857Y657003D01*
G37*
%LPD*%
%LPC*%
G36*
X579881Y577341D02*
X579881Y577341D01*
X579881Y584963D01*
X581848Y584963D01*
X587503Y579308D01*
X587503Y577341D01*
X579881Y577341D01*
G37*
%LPD*%
%LPC*%
G36*
X142747Y243331D02*
X142747Y243331D01*
X142747Y245298D01*
X148402Y250953D01*
X150369Y250953D01*
X150369Y243331D01*
X142747Y243331D01*
G37*
%LPD*%
%LPC*%
G36*
X568197Y577341D02*
X568197Y577341D01*
X568197Y579308D01*
X573852Y584963D01*
X575819Y584963D01*
X575819Y577341D01*
X568197Y577341D01*
G37*
%LPD*%
%LPC*%
G36*
X345173Y657003D02*
X345173Y657003D01*
X345173Y658970D01*
X350828Y664624D01*
X352795Y664624D01*
X352795Y657003D01*
X345173Y657003D01*
G37*
%LPD*%
%LPC*%
G36*
X672337Y228091D02*
X672337Y228091D01*
X672337Y230058D01*
X677992Y235713D01*
X679959Y235713D01*
X679959Y228091D01*
X672337Y228091D01*
G37*
%LPD*%
%LPC*%
G36*
X523747Y184911D02*
X523747Y184911D01*
X523747Y186878D01*
X529402Y192533D01*
X531369Y192533D01*
X531369Y184911D01*
X523747Y184911D01*
G37*
%LPD*%
%LPC*%
G36*
X409447Y306831D02*
X409447Y306831D01*
X409447Y308798D01*
X415102Y314453D01*
X417069Y314453D01*
X417069Y306831D01*
X409447Y306831D01*
G37*
%LPD*%
%LPC*%
G36*
X104901Y505967D02*
X104901Y505967D01*
X104901Y513589D01*
X112523Y513589D01*
X112523Y511622D01*
X106868Y505967D01*
X104901Y505967D01*
G37*
%LPD*%
%LPC*%
G36*
X649731Y505967D02*
X649731Y505967D01*
X649731Y513589D01*
X657353Y513589D01*
X657353Y511622D01*
X651698Y505967D01*
X649731Y505967D01*
G37*
%LPD*%
%LPC*%
G36*
X154431Y231647D02*
X154431Y231647D01*
X154431Y239269D01*
X162053Y239269D01*
X162053Y237302D01*
X156398Y231647D01*
X154431Y231647D01*
G37*
%LPD*%
%LPC*%
G36*
X356857Y645319D02*
X356857Y645319D01*
X356857Y652940D01*
X364479Y652940D01*
X364479Y650973D01*
X358824Y645319D01*
X356857Y645319D01*
G37*
%LPD*%
%LPC*%
G36*
X579881Y565657D02*
X579881Y565657D01*
X579881Y573279D01*
X587503Y573279D01*
X587503Y571312D01*
X581848Y565657D01*
X579881Y565657D01*
G37*
%LPD*%
%LPC*%
G36*
X535431Y173227D02*
X535431Y173227D01*
X535431Y180849D01*
X543053Y180849D01*
X543053Y178882D01*
X537398Y173227D01*
X535431Y173227D01*
G37*
%LPD*%
%LPC*%
G36*
X684021Y216407D02*
X684021Y216407D01*
X684021Y224029D01*
X691643Y224029D01*
X691643Y222062D01*
X685988Y216407D01*
X684021Y216407D01*
G37*
%LPD*%
%LPC*%
G36*
X513841Y513587D02*
X513841Y513587D01*
X513841Y521209D01*
X521463Y521209D01*
X521463Y519242D01*
X515808Y513587D01*
X513841Y513587D01*
G37*
%LPD*%
%LPC*%
G36*
X421131Y295147D02*
X421131Y295147D01*
X421131Y302769D01*
X428753Y302769D01*
X428753Y300802D01*
X423098Y295147D01*
X421131Y295147D01*
G37*
%LPD*%
%LPC*%
G36*
X502157Y525271D02*
X502157Y525271D01*
X502157Y525922D01*
X502157Y527238D01*
X507812Y532893D01*
X509779Y532893D01*
X509779Y525271D01*
X502157Y525271D01*
G37*
%LPD*%
%LPC*%
G36*
X638047Y517651D02*
X638047Y517651D01*
X638047Y519618D01*
X643702Y525273D01*
X645669Y525273D01*
X645669Y517651D01*
X638047Y517651D01*
G37*
%LPD*%
%LPC*%
G36*
X93217Y517651D02*
X93217Y517651D01*
X93217Y519618D01*
X98872Y525273D01*
X100839Y525273D01*
X100839Y517651D01*
X93217Y517651D01*
G37*
%LPD*%
%LPC*%
G36*
X643702Y505967D02*
X643702Y505967D01*
X638047Y511622D01*
X638047Y513589D01*
X645669Y513589D01*
X645669Y505967D01*
X643702Y505967D01*
G37*
%LPD*%
%LPC*%
G36*
X98872Y505967D02*
X98872Y505967D01*
X93217Y511622D01*
X93217Y513589D01*
X100839Y513589D01*
X100839Y505967D01*
X98872Y505967D01*
G37*
%LPD*%
%LPC*%
G36*
X148402Y231647D02*
X148402Y231647D01*
X142747Y237302D01*
X142747Y239269D01*
X150369Y239269D01*
X150369Y231647D01*
X148402Y231647D01*
G37*
%LPD*%
%LPC*%
G36*
X677992Y216407D02*
X677992Y216407D01*
X672337Y222062D01*
X672337Y224029D01*
X679959Y224029D01*
X679959Y216407D01*
X677992Y216407D01*
G37*
%LPD*%
%LPC*%
G36*
X350828Y645319D02*
X350828Y645319D01*
X345173Y650973D01*
X345173Y652940D01*
X352795Y652940D01*
X352795Y645319D01*
X350828Y645319D01*
G37*
%LPD*%
%LPC*%
G36*
X415102Y295147D02*
X415102Y295147D01*
X409447Y300802D01*
X409447Y302769D01*
X417069Y302769D01*
X417069Y295147D01*
X415102Y295147D01*
G37*
%LPD*%
%LPC*%
G36*
X507812Y513587D02*
X507812Y513587D01*
X502157Y519242D01*
X502157Y521209D01*
X509779Y521209D01*
X509779Y513587D01*
X507812Y513587D01*
G37*
%LPD*%
%LPC*%
G36*
X529402Y173227D02*
X529402Y173227D01*
X523747Y178882D01*
X523747Y180849D01*
X531369Y180849D01*
X531369Y173227D01*
X529402Y173227D01*
G37*
%LPD*%
%LPC*%
G36*
X573852Y565657D02*
X573852Y565657D01*
X568197Y571312D01*
X568197Y573279D01*
X575819Y573279D01*
X575819Y565657D01*
X573852Y565657D01*
G37*
%LPD*%
%LPC*%
G36*
X208787Y448817D02*
X208787Y448817D01*
X208787Y456185D01*
X210798Y456185D01*
X216155Y450828D01*
X216155Y448817D01*
X208787Y448817D01*
G37*
%LPD*%
%LPC*%
G36*
X337565Y620267D02*
X337565Y620267D01*
X337565Y622278D01*
X342922Y627635D01*
X344933Y627635D01*
X344933Y620267D01*
X337565Y620267D01*
G37*
%LPD*%
%LPC*%
G36*
X337565Y574547D02*
X337565Y574547D01*
X337565Y576558D01*
X342922Y581915D01*
X344933Y581915D01*
X344933Y574547D01*
X337565Y574547D01*
G37*
%LPD*%
%LPC*%
G36*
X531875Y453897D02*
X531875Y453897D01*
X531875Y455908D01*
X537232Y461265D01*
X539243Y461265D01*
X539243Y453897D01*
X531875Y453897D01*
G37*
%LPD*%
%LPC*%
G36*
X208787Y437895D02*
X208787Y437895D01*
X208787Y445263D01*
X216155Y445263D01*
X216155Y443252D01*
X210798Y437895D01*
X208787Y437895D01*
G37*
%LPD*%
%LPC*%
G36*
X512317Y628395D02*
X512317Y628395D01*
X512317Y635763D01*
X519685Y635763D01*
X519685Y633752D01*
X514328Y628395D01*
X512317Y628395D01*
G37*
%LPD*%
%LPC*%
G36*
X506752Y628395D02*
X506752Y628395D01*
X501395Y633752D01*
X501395Y635763D01*
X508763Y635763D01*
X508763Y628395D01*
X506752Y628395D01*
G37*
%LPD*%
%LPC*%
G36*
X537232Y442975D02*
X537232Y442975D01*
X531875Y448332D01*
X531875Y450343D01*
X539243Y450343D01*
X539243Y442975D01*
X537232Y442975D01*
G37*
%LPD*%
%LPC*%
G36*
X342922Y563625D02*
X342922Y563625D01*
X337565Y568982D01*
X337565Y570993D01*
X344933Y570993D01*
X344933Y563625D01*
X342922Y563625D01*
G37*
%LPD*%
%LPC*%
G36*
X342922Y609345D02*
X342922Y609345D01*
X337565Y614702D01*
X337565Y616713D01*
X344933Y616713D01*
X344933Y609345D01*
X342922Y609345D01*
G37*
%LPD*%
%LPC*%
G36*
X154177Y160527D02*
X154177Y160527D01*
X154177Y167720D01*
X154713Y167614D01*
X155567Y167336D01*
X155911Y167194D01*
X156232Y167061D01*
X157032Y166653D01*
X157630Y166254D01*
X158357Y165725D01*
X159375Y164707D01*
X159904Y163980D01*
X160303Y163382D01*
X160711Y162582D01*
X160986Y161917D01*
X161264Y161063D01*
X161370Y160527D01*
X154177Y160527D01*
G37*
%LPD*%
%LPC*%
G36*
X559307Y658367D02*
X559307Y658367D01*
X559307Y665560D01*
X559843Y665454D01*
X560697Y665176D01*
X561041Y665034D01*
X561362Y664901D01*
X562162Y664493D01*
X562760Y664094D01*
X563487Y663565D01*
X564505Y662547D01*
X565034Y661820D01*
X565433Y661222D01*
X565841Y660422D01*
X566116Y659757D01*
X566394Y658903D01*
X566500Y658367D01*
X559307Y658367D01*
G37*
%LPD*%
%LPC*%
G36*
X38607Y646937D02*
X38607Y646937D01*
X38607Y654130D01*
X39143Y654024D01*
X39997Y653746D01*
X40341Y653604D01*
X40662Y653471D01*
X41462Y653063D01*
X42060Y652664D01*
X42787Y652135D01*
X43805Y651117D01*
X44334Y650390D01*
X44733Y649792D01*
X45141Y648992D01*
X45336Y648521D01*
X45416Y648327D01*
X45694Y647473D01*
X45726Y647313D01*
X45800Y646937D01*
X38607Y646937D01*
G37*
%LPD*%
%LPC*%
G36*
X84327Y648207D02*
X84327Y648207D01*
X84327Y655400D01*
X84863Y655294D01*
X85717Y655016D01*
X86144Y654839D01*
X86382Y654741D01*
X87182Y654333D01*
X87645Y654024D01*
X87780Y653934D01*
X88507Y653405D01*
X89525Y652387D01*
X90054Y651660D01*
X90453Y651062D01*
X90861Y650262D01*
X91136Y649597D01*
X91414Y648743D01*
X91448Y648571D01*
X91520Y648207D01*
X84327Y648207D01*
G37*
%LPD*%
%LPC*%
G36*
X548560Y658367D02*
X548560Y658367D01*
X548666Y658903D01*
X548944Y659757D01*
X549219Y660422D01*
X549627Y661222D01*
X550026Y661820D01*
X550555Y662547D01*
X551573Y663565D01*
X552300Y664094D01*
X552898Y664493D01*
X553698Y664901D01*
X554019Y665034D01*
X554363Y665176D01*
X555217Y665454D01*
X555553Y665521D01*
X555753Y665560D01*
X555753Y658367D01*
X548560Y658367D01*
G37*
%LPD*%
%LPC*%
G36*
X553640Y145287D02*
X553640Y145287D01*
X553746Y145823D01*
X554024Y146677D01*
X554299Y147342D01*
X554707Y148142D01*
X555106Y148740D01*
X555635Y149467D01*
X556653Y150485D01*
X557380Y151014D01*
X557978Y151413D01*
X558778Y151821D01*
X559099Y151954D01*
X559443Y152096D01*
X560297Y152374D01*
X560633Y152441D01*
X560833Y152480D01*
X560833Y145287D01*
X553640Y145287D01*
G37*
%LPD*%
%LPC*%
G36*
X27860Y646937D02*
X27860Y646937D01*
X27934Y647313D01*
X27966Y647473D01*
X28244Y648327D01*
X28324Y648521D01*
X28519Y648992D01*
X28927Y649792D01*
X29326Y650390D01*
X29855Y651117D01*
X30873Y652135D01*
X31600Y652664D01*
X32198Y653063D01*
X32998Y653471D01*
X33319Y653604D01*
X33663Y653746D01*
X34517Y654024D01*
X34853Y654091D01*
X35053Y654130D01*
X35053Y646937D01*
X27860Y646937D01*
G37*
%LPD*%
%LPC*%
G36*
X154177Y156973D02*
X154177Y156973D01*
X161370Y156973D01*
X161264Y156437D01*
X160986Y155583D01*
X160711Y154918D01*
X160303Y154118D01*
X159904Y153520D01*
X159375Y152793D01*
X158357Y151775D01*
X157630Y151246D01*
X157032Y150847D01*
X156232Y150439D01*
X155911Y150306D01*
X155567Y150164D01*
X154713Y149886D01*
X154177Y149780D01*
X154177Y156973D01*
G37*
%LPD*%
%LPC*%
G36*
X73580Y648207D02*
X73580Y648207D01*
X73652Y648571D01*
X73686Y648743D01*
X73964Y649597D01*
X74239Y650262D01*
X74647Y651062D01*
X75046Y651660D01*
X75575Y652387D01*
X76593Y653405D01*
X77320Y653934D01*
X77455Y654024D01*
X77918Y654333D01*
X78718Y654741D01*
X78956Y654839D01*
X79383Y655016D01*
X80237Y655294D01*
X80541Y655354D01*
X80773Y655400D01*
X80773Y648207D01*
X73580Y648207D01*
G37*
%LPD*%
%LPC*%
G36*
X560633Y134579D02*
X560633Y134579D01*
X560297Y134646D01*
X559443Y134924D01*
X559099Y135066D01*
X558778Y135199D01*
X557978Y135607D01*
X557380Y136006D01*
X556653Y136535D01*
X555635Y137553D01*
X555106Y138280D01*
X554707Y138878D01*
X554299Y139678D01*
X554024Y140343D01*
X553746Y141197D01*
X553640Y141733D01*
X560833Y141733D01*
X560833Y134540D01*
X560633Y134579D01*
G37*
%LPD*%
D10*
X374650Y722453D03*
X476250Y722807D03*
X476246Y686449D03*
X374654Y687691D03*
X692043Y624368D03*
X590443Y624368D03*
X590525Y657252D03*
X692125Y657252D03*
D11*
X476143Y574838D03*
X399943Y574838D03*
D12*
X501650Y575310D03*
X577850Y575310D03*
D11*
X511810Y523240D03*
X435610Y523240D03*
D12*
X435610Y548640D03*
X511810Y548640D03*
D11*
X431026Y654972D03*
X354826Y654972D03*
D13*
X611336Y726177D03*
D14*
X585936Y726177D03*
X560536Y726177D03*
D13*
X190500Y725170D03*
D14*
X165100Y725170D03*
X139700Y725170D03*
D15*
X307340Y728218D02*
X307340Y711962D01*
X281940Y711962D02*
X281940Y728218D01*
D16*
X510540Y637540D03*
D17*
X510540Y655320D03*
D16*
X82550Y628650D03*
D17*
X82550Y646430D03*
D18*
X346710Y572770D03*
D17*
X364490Y572770D03*
D16*
X36830Y627380D03*
D17*
X36830Y645160D03*
D16*
X557530Y638810D03*
D17*
X557530Y656590D03*
D18*
X346710Y618490D03*
D17*
X364490Y618490D03*
D19*
X157480Y631190D03*
D20*
X157480Y595630D03*
D21*
X264160Y594360D03*
D20*
X264160Y629920D03*
D22*
X469900Y635000D03*
X469900Y609600D03*
D23*
X350012Y241300D02*
X335788Y241300D01*
X335788Y215900D02*
X350012Y215900D01*
X411988Y215900D02*
X426212Y215900D01*
X426212Y241300D02*
X411988Y241300D01*
X350012Y190500D02*
X335788Y190500D01*
X335788Y165100D02*
X350012Y165100D01*
X411988Y190500D02*
X426212Y190500D01*
X426212Y165100D02*
X411988Y165100D01*
D15*
X312928Y25400D02*
X296672Y25400D01*
X296672Y50800D02*
X312928Y50800D01*
X312928Y76200D02*
X296672Y76200D01*
X449072Y25400D02*
X465328Y25400D01*
X465328Y50800D02*
X449072Y50800D01*
X449072Y76200D02*
X465328Y76200D01*
D18*
X541020Y452120D03*
D17*
X558800Y452120D03*
D24*
X207010Y447040D03*
D17*
X189230Y447040D03*
D18*
X134620Y158750D03*
D17*
X152400Y158750D03*
D24*
X580390Y143510D03*
D17*
X562610Y143510D03*
D23*
X128270Y400558D02*
X128270Y414782D01*
X128270Y338582D02*
X128270Y324358D01*
X598678Y177800D02*
X612902Y177800D01*
X674878Y177800D02*
X689102Y177800D01*
X596900Y483108D02*
X596900Y497332D01*
X596900Y421132D02*
X596900Y406908D01*
X622300Y509778D02*
X622300Y524002D01*
X622300Y447802D02*
X622300Y433578D01*
X102870Y338582D02*
X102870Y324358D01*
X102870Y400558D02*
X102870Y414782D01*
X235458Y303530D02*
X249682Y303530D01*
X173482Y303530D02*
X159258Y303530D01*
X210058Y156210D02*
X224282Y156210D01*
X286258Y156210D02*
X300482Y156210D01*
X661670Y330708D02*
X661670Y344932D01*
X661670Y406908D02*
X661670Y421132D01*
X540512Y321310D02*
X526288Y321310D01*
X602488Y321310D02*
X616712Y321310D01*
X540512Y156210D02*
X526288Y156210D01*
X464312Y156210D02*
X450088Y156210D01*
X300482Y130810D02*
X286258Y130810D01*
X224282Y130810D02*
X210058Y130810D01*
X159512Y215900D02*
X145288Y215900D01*
X83312Y215900D02*
X69088Y215900D01*
X69088Y187960D02*
X83312Y187960D01*
X145288Y187960D02*
X159512Y187960D01*
X153670Y476758D02*
X153670Y490982D01*
X153670Y414782D02*
X153670Y400558D01*
X128270Y432308D02*
X128270Y446532D01*
X128270Y508508D02*
X128270Y522732D01*
X635000Y421132D02*
X635000Y406908D01*
X635000Y344932D02*
X635000Y330708D01*
X464312Y130810D02*
X450088Y130810D01*
X526288Y130810D02*
X540512Y130810D01*
X674878Y201930D02*
X689102Y201930D01*
X612902Y201930D02*
X598678Y201930D01*
X32512Y495300D02*
X18288Y495300D01*
X18288Y546100D02*
X32512Y546100D01*
X32512Y520700D02*
X18288Y520700D01*
X18288Y152400D02*
X32512Y152400D01*
X32512Y203200D02*
X18288Y203200D01*
X18288Y177800D02*
X32512Y177800D01*
D25*
X35218Y382270D02*
X18122Y382270D01*
X18122Y356870D02*
X35218Y356870D01*
X35218Y331470D02*
X18122Y331470D01*
X139700Y49188D02*
X139700Y32092D01*
X165100Y32092D02*
X165100Y49188D01*
X190500Y49188D02*
X190500Y32092D01*
D23*
X728218Y495300D02*
X742442Y495300D01*
X742442Y546100D02*
X728218Y546100D01*
X728218Y520700D02*
X742442Y520700D01*
X741172Y138430D02*
X726948Y138430D01*
X726948Y189230D02*
X741172Y189230D01*
X741172Y163830D02*
X726948Y163830D01*
D25*
X571500Y51728D02*
X571500Y34632D01*
X596900Y34632D02*
X596900Y51728D01*
X622300Y51728D02*
X622300Y34632D01*
X715352Y330200D02*
X732448Y330200D01*
X732448Y355600D02*
X715352Y355600D01*
X715352Y381000D02*
X732448Y381000D01*
D11*
X419100Y304800D03*
X342900Y304800D03*
X532130Y213360D03*
X455930Y213360D03*
X666750Y546100D03*
X590550Y546100D03*
D26*
X647700Y439420D03*
X647700Y515620D03*
D11*
X681990Y250190D03*
X605790Y250190D03*
D26*
X557530Y215900D03*
X557530Y292100D03*
D11*
X604520Y102870D03*
X528320Y102870D03*
D12*
X605790Y226060D03*
X681990Y226060D03*
D11*
X419100Y101600D03*
X342900Y101600D03*
D12*
X76200Y546100D03*
X152400Y546100D03*
D26*
X102870Y439420D03*
X102870Y515620D03*
D12*
X76200Y265430D03*
X152400Y265430D03*
D11*
X419100Y278130D03*
X342900Y278130D03*
D12*
X342900Y133350D03*
X419100Y133350D03*
X76200Y241300D03*
X152400Y241300D03*
D11*
X533400Y182880D03*
X457200Y182880D03*
D27*
X558800Y414020D03*
X533400Y414020D03*
D28*
X631190Y279400D03*
X656590Y279400D03*
X607060Y143510D03*
X632460Y143510D03*
X189230Y407670D03*
X214630Y407670D03*
D27*
X101600Y158750D03*
X76200Y158750D03*
X127000Y294640D03*
X101600Y294640D03*
M02*
