G04 EAGLE Gerber RS-274X export*
G75*
%MOMM*%
%FSLAX34Y34*%
%LPD*%
%INSoldermask Bottom*%
%IPPOS*%
%AMOC8*
5,1,8,0,0,1.08239X$1,22.5*%
G01*
%ADD10C,4.775200*%
%ADD11C,1.930400*%
%ADD12P,1.759533X8X202.500000*%
%ADD13P,1.759533X8X22.500000*%
%ADD14R,1.812800X1.812800*%
%ADD15C,1.812800*%
%ADD16C,1.828800*%
%ADD17P,1.649562X8X292.500000*%
%ADD18C,1.524000*%
%ADD19P,1.649562X8X202.500000*%
%ADD20P,1.951982X8X112.500000*%
%ADD21C,1.803400*%
%ADD22P,1.951982X8X292.500000*%
%ADD23P,1.759533X8X292.500000*%
%ADD24C,1.625600*%
%ADD25P,1.649562X8X22.500000*%
%ADD26C,1.912800*%
%ADD27P,1.759533X8X112.500000*%
%ADD28P,1.951982X8X202.500000*%
%ADD29P,1.951982X8X22.500000*%


D10*
X38100Y38100D03*
X723900Y38100D03*
X723900Y723900D03*
X38100Y723900D03*
D11*
X374650Y722453D03*
X476250Y722807D03*
X476246Y686449D03*
X374654Y687691D03*
X692043Y624368D03*
X590443Y624368D03*
X590525Y657252D03*
X692125Y657252D03*
D12*
X476143Y574838D03*
X399943Y574838D03*
D13*
X501650Y575310D03*
X577850Y575310D03*
D12*
X511810Y523240D03*
X435610Y523240D03*
D13*
X435610Y548640D03*
X511810Y548640D03*
D12*
X431026Y654972D03*
X354826Y654972D03*
D14*
X611336Y726177D03*
D15*
X585936Y726177D03*
X560536Y726177D03*
D14*
X190500Y725170D03*
D15*
X165100Y725170D03*
X139700Y725170D03*
D16*
X307340Y728218D02*
X307340Y711962D01*
X281940Y711962D02*
X281940Y728218D01*
D17*
X510540Y637540D03*
D18*
X510540Y655320D03*
D17*
X82550Y628650D03*
D18*
X82550Y646430D03*
D19*
X346710Y572770D03*
D18*
X364490Y572770D03*
D17*
X36830Y627380D03*
D18*
X36830Y645160D03*
D17*
X557530Y638810D03*
D18*
X557530Y656590D03*
D19*
X346710Y618490D03*
D18*
X364490Y618490D03*
D20*
X157480Y631190D03*
D21*
X157480Y595630D03*
D22*
X264160Y594360D03*
D21*
X264160Y629920D03*
D23*
X469900Y635000D03*
X469900Y609600D03*
D24*
X350012Y241300D02*
X335788Y241300D01*
X335788Y215900D02*
X350012Y215900D01*
X411988Y215900D02*
X426212Y215900D01*
X426212Y241300D02*
X411988Y241300D01*
X350012Y190500D02*
X335788Y190500D01*
X335788Y165100D02*
X350012Y165100D01*
X411988Y190500D02*
X426212Y190500D01*
X426212Y165100D02*
X411988Y165100D01*
D16*
X312928Y25400D02*
X296672Y25400D01*
X296672Y50800D02*
X312928Y50800D01*
X312928Y76200D02*
X296672Y76200D01*
X449072Y25400D02*
X465328Y25400D01*
X465328Y50800D02*
X449072Y50800D01*
X449072Y76200D02*
X465328Y76200D01*
D19*
X541020Y452120D03*
D18*
X558800Y452120D03*
D25*
X207010Y447040D03*
D18*
X189230Y447040D03*
D19*
X134620Y158750D03*
D18*
X152400Y158750D03*
D25*
X580390Y143510D03*
D18*
X562610Y143510D03*
D24*
X128270Y400558D02*
X128270Y414782D01*
X128270Y338582D02*
X128270Y324358D01*
X598678Y177800D02*
X612902Y177800D01*
X674878Y177800D02*
X689102Y177800D01*
X596900Y483108D02*
X596900Y497332D01*
X596900Y421132D02*
X596900Y406908D01*
X622300Y509778D02*
X622300Y524002D01*
X622300Y447802D02*
X622300Y433578D01*
X102870Y338582D02*
X102870Y324358D01*
X102870Y400558D02*
X102870Y414782D01*
X235458Y303530D02*
X249682Y303530D01*
X173482Y303530D02*
X159258Y303530D01*
X210058Y156210D02*
X224282Y156210D01*
X286258Y156210D02*
X300482Y156210D01*
X661670Y330708D02*
X661670Y344932D01*
X661670Y406908D02*
X661670Y421132D01*
X540512Y321310D02*
X526288Y321310D01*
X602488Y321310D02*
X616712Y321310D01*
X540512Y156210D02*
X526288Y156210D01*
X464312Y156210D02*
X450088Y156210D01*
X300482Y130810D02*
X286258Y130810D01*
X224282Y130810D02*
X210058Y130810D01*
X159512Y215900D02*
X145288Y215900D01*
X83312Y215900D02*
X69088Y215900D01*
X69088Y187960D02*
X83312Y187960D01*
X145288Y187960D02*
X159512Y187960D01*
X153670Y476758D02*
X153670Y490982D01*
X153670Y414782D02*
X153670Y400558D01*
X128270Y432308D02*
X128270Y446532D01*
X128270Y508508D02*
X128270Y522732D01*
X635000Y421132D02*
X635000Y406908D01*
X635000Y344932D02*
X635000Y330708D01*
X464312Y130810D02*
X450088Y130810D01*
X526288Y130810D02*
X540512Y130810D01*
X674878Y201930D02*
X689102Y201930D01*
X612902Y201930D02*
X598678Y201930D01*
X32512Y495300D02*
X18288Y495300D01*
X18288Y546100D02*
X32512Y546100D01*
X32512Y520700D02*
X18288Y520700D01*
X18288Y152400D02*
X32512Y152400D01*
X32512Y203200D02*
X18288Y203200D01*
X18288Y177800D02*
X32512Y177800D01*
D26*
X35218Y382270D02*
X18122Y382270D01*
X18122Y356870D02*
X35218Y356870D01*
X35218Y331470D02*
X18122Y331470D01*
X139700Y49188D02*
X139700Y32092D01*
X165100Y32092D02*
X165100Y49188D01*
X190500Y49188D02*
X190500Y32092D01*
D24*
X728218Y495300D02*
X742442Y495300D01*
X742442Y546100D02*
X728218Y546100D01*
X728218Y520700D02*
X742442Y520700D01*
X741172Y138430D02*
X726948Y138430D01*
X726948Y189230D02*
X741172Y189230D01*
X741172Y163830D02*
X726948Y163830D01*
D26*
X571500Y51728D02*
X571500Y34632D01*
X596900Y34632D02*
X596900Y51728D01*
X622300Y51728D02*
X622300Y34632D01*
X715352Y330200D02*
X732448Y330200D01*
X732448Y355600D02*
X715352Y355600D01*
X715352Y381000D02*
X732448Y381000D01*
D12*
X419100Y304800D03*
X342900Y304800D03*
X532130Y213360D03*
X455930Y213360D03*
X666750Y546100D03*
X590550Y546100D03*
D27*
X647700Y439420D03*
X647700Y515620D03*
D12*
X681990Y250190D03*
X605790Y250190D03*
D27*
X557530Y215900D03*
X557530Y292100D03*
D12*
X604520Y102870D03*
X528320Y102870D03*
D13*
X605790Y226060D03*
X681990Y226060D03*
D12*
X419100Y101600D03*
X342900Y101600D03*
D13*
X76200Y546100D03*
X152400Y546100D03*
D27*
X102870Y439420D03*
X102870Y515620D03*
D13*
X76200Y265430D03*
X152400Y265430D03*
D12*
X419100Y278130D03*
X342900Y278130D03*
D13*
X342900Y133350D03*
X419100Y133350D03*
X76200Y241300D03*
X152400Y241300D03*
D12*
X533400Y182880D03*
X457200Y182880D03*
D28*
X558800Y414020D03*
X533400Y414020D03*
D29*
X631190Y279400D03*
X656590Y279400D03*
X607060Y143510D03*
X632460Y143510D03*
X189230Y407670D03*
X214630Y407670D03*
D28*
X101600Y158750D03*
X76200Y158750D03*
X127000Y294640D03*
X101600Y294640D03*
M02*
